<svg width="80" height="26" viewBox="0 0 80 26" fill="none" xmlns="http://www.w3.org/2000/svg">
<rect width="80" height="26" fill="white"/>
<path d="M38.7695 16.3594C38.832 16.4609 38.8789 16.5586 38.9102 16.6523C38.9414 16.7461 38.957 16.8125 38.957 16.8516C38.957 16.9062 38.9453 16.9531 38.9219 16.9922C38.9062 17.0234 38.8828 17.0586 38.8516 17.0977C38.5391 17.2305 38.2266 17.3555 37.9141 17.4727C37.6094 17.582 37.2969 17.6914 36.9766 17.8008C36.8984 17.8242 36.8203 17.8516 36.7422 17.8828C36.6719 17.9062 36.5938 17.9258 36.5078 17.9414C36.4922 17.957 36.4648 17.9727 36.4258 17.9883C36.3867 18.0039 36.3398 18.0195 36.2852 18.0352C36.2383 18.0508 36.1914 18.0625 36.1445 18.0703C36.0977 18.0859 36.0664 18.0938 36.0508 18.0938C36.0352 18.0547 36.0195 18.0312 36.0039 18.0234C35.9883 18.0156 35.9727 18.0078 35.957 18C35.918 18 35.8906 18.0117 35.875 18.0352C35.8672 18.0664 35.8438 18.0898 35.8047 18.1055C35.7656 18.1055 35.7305 18.1055 35.6992 18.1055C35.668 18.1133 35.6406 18.1094 35.6172 18.0938C35.5547 18.1094 35.4961 18.1367 35.4414 18.1758C35.3945 18.2148 35.3398 18.2422 35.2773 18.2578C35.1602 18.2266 35.0859 18.2109 35.0547 18.2109C35.0312 18.2188 35.0039 18.2266 34.9727 18.2344C34.918 18.1875 34.8906 18.1211 34.8906 18.0352C34.8984 17.9492 34.8789 17.8789 34.832 17.8242C34.832 17.7227 34.8242 17.668 34.8086 17.6602C34.793 17.6445 34.7852 17.6289 34.7852 17.6133C34.7852 17.5586 34.7891 17.5078 34.7969 17.4609C34.8047 17.4141 34.8008 17.3633 34.7852 17.3086C34.8164 17.1758 34.8281 17.0469 34.8203 16.9219C34.8125 16.7969 34.8164 16.6719 34.832 16.5469C34.832 16.5078 34.832 16.4727 34.832 16.4414C34.8398 16.4023 34.8438 16.3633 34.8438 16.3242C34.8438 16.207 34.8516 16.1367 34.8672 16.1133C34.8828 16.082 34.8906 16.0469 34.8906 16.0078C34.8906 15.9531 34.8867 15.9023 34.8789 15.8555C34.8789 15.8008 34.8789 15.7422 34.8789 15.6797C34.8789 15.5703 34.8789 15.4648 34.8789 15.3633C34.8867 15.2539 34.8906 15.1406 34.8906 15.0234C34.8906 14.7266 34.8711 14.4297 34.832 14.1328C34.793 13.8359 34.7734 13.5391 34.7734 13.2422C34.7734 12.8828 34.7539 12.5273 34.7148 12.1758C34.6758 11.8242 34.6562 11.4688 34.6562 11.1094C34.6562 11.0469 34.6562 10.9609 34.6562 10.8516C34.6562 10.7344 34.6562 10.6172 34.6562 10.5C34.6562 10.375 34.6562 10.2578 34.6562 10.1484C34.6641 10.0391 34.6719 9.96094 34.6797 9.91406C34.6797 9.90625 34.7031 9.89453 34.75 9.87891C34.7969 9.86328 34.8281 9.85547 34.8438 9.85547C34.8828 9.85547 34.9141 9.86719 34.9375 9.89062C34.9609 9.90625 34.9883 9.92188 35.0195 9.9375C35.1602 9.92188 35.2422 9.91016 35.2656 9.90234C35.2969 9.88672 35.3203 9.87891 35.3359 9.87891C35.3828 9.87891 35.418 9.89062 35.4414 9.91406C35.4727 9.9375 35.4961 9.94922 35.5117 9.94922C35.6445 9.91797 35.7148 9.91406 35.7227 9.9375C35.7383 9.96094 35.7656 9.97266 35.8047 9.97266C35.9062 9.94141 35.9688 9.92969 35.9922 9.9375C36.0156 9.94531 36.0391 9.94922 36.0625 9.94922C36.1016 9.94922 36.1445 9.9375 36.1914 9.91406C36.2383 9.88281 36.2812 9.85938 36.3203 9.84375C36.4531 9.80469 36.5625 9.76562 36.6484 9.72656C36.7656 9.65625 36.8516 9.60938 36.9062 9.58594C36.9688 9.5625 37.0312 9.53516 37.0938 9.50391C37.2266 9.44922 37.3516 9.39453 37.4688 9.33984C37.5938 9.27734 37.7227 9.21484 37.8555 9.15234C37.8789 9.15234 37.9023 9.15234 37.9258 9.15234C37.957 9.14453 37.9805 9.13281 37.9961 9.11719C38.0195 9.125 38.043 9.12891 38.0664 9.12891C38.0977 9.12891 38.125 9.12891 38.1484 9.12891C38.2266 9.16016 38.2773 9.17969 38.3008 9.1875C38.332 9.23438 38.3594 9.28125 38.3828 9.32812C38.4141 9.36719 38.4492 9.40625 38.4883 9.44531C38.5273 9.51562 38.5586 9.55078 38.582 9.55078C38.582 9.57422 38.5703 9.60156 38.5469 9.63281C38.5234 9.65625 38.5117 9.67969 38.5117 9.70312C38.5742 9.8125 38.625 9.91406 38.6641 10.0078C38.7031 10.1016 38.7227 10.168 38.7227 10.207C38.7227 10.2617 38.7148 10.3086 38.6992 10.3477C38.6836 10.3789 38.6641 10.4141 38.6406 10.4531C38.3438 10.5938 38.043 10.7344 37.7383 10.875C37.4414 11.0078 37.1367 11.1406 36.8242 11.2734C36.7461 11.3047 36.6719 11.3398 36.6016 11.3789C36.5312 11.4102 36.4531 11.4336 36.3672 11.4492C36.3516 11.4648 36.3164 11.4805 36.2617 11.4961C36.207 11.5039 36.1641 11.5078 36.1328 11.5078C36.1484 11.6406 36.1562 11.7734 36.1562 11.9062C36.1641 12.0312 36.1719 12.1602 36.1797 12.293C36.1875 12.4023 36.1992 12.5195 36.2148 12.6445C36.2383 12.7617 36.2578 12.8789 36.2734 12.9961C36.5312 12.8867 36.7852 12.7773 37.0352 12.668C37.293 12.5586 37.5508 12.4492 37.8086 12.3398C37.8555 12.3477 37.9023 12.3555 37.9492 12.3633C38.0039 12.3711 38.0547 12.3828 38.1016 12.3984C38.1172 12.4141 38.1328 12.4336 38.1484 12.457C38.1641 12.4805 38.1836 12.5 38.207 12.5156C38.1992 12.5547 38.2227 12.6133 38.2773 12.6914C38.3398 12.7695 38.3711 12.8281 38.3711 12.8672C38.3711 12.9297 38.3789 12.9688 38.3945 12.9844C38.4102 12.9922 38.4258 13.0234 38.4414 13.0781C38.4492 13.1562 38.4492 13.1992 38.4414 13.207C38.4805 13.2461 38.5117 13.2852 38.5352 13.3242C38.5586 13.3633 38.5703 13.4102 38.5703 13.4648C38.4609 13.5977 38.3516 13.6875 38.2422 13.7344C38.1328 13.7734 38.0234 13.8164 37.9141 13.8633C37.875 13.8789 37.832 13.9023 37.7852 13.9336C37.7461 13.957 37.707 13.9766 37.668 13.9922C37.6055 14.0156 37.543 14.0391 37.4805 14.0625C37.4258 14.0781 37.3672 14.1016 37.3047 14.1328C37.2031 14.1875 37.0977 14.25 36.9883 14.3203C36.8867 14.3828 36.7812 14.4258 36.6719 14.4492C36.5859 14.4727 36.5273 14.5 36.4961 14.5312C36.4727 14.5547 36.4297 14.5898 36.3672 14.6367V14.9531V15.5391C36.3672 15.6172 36.3672 15.6992 36.3672 15.7852C36.3672 15.8633 36.3633 15.9453 36.3555 16.0312C36.3398 16.1094 36.332 16.1758 36.332 16.2305V16.418C36.3711 16.4023 36.4102 16.3906 36.4492 16.3828C36.4883 16.3672 36.5273 16.3516 36.5664 16.3359C36.5977 16.3281 36.625 16.3242 36.6484 16.3242C36.6797 16.3242 36.7109 16.3164 36.7422 16.3008C36.7812 16.293 36.8125 16.2852 36.8359 16.2773C36.8594 16.2695 36.8867 16.2578 36.918 16.2422C37.0352 16.1797 37.125 16.1406 37.1875 16.125C37.25 16.1016 37.3125 16.0781 37.375 16.0547C37.5078 16.0078 37.6367 15.9609 37.7617 15.9141C37.8867 15.8594 38.0117 15.8086 38.1367 15.7617C38.2148 15.7773 38.2695 15.7656 38.3008 15.7266C38.3398 15.7344 38.3711 15.7422 38.3945 15.75C38.4258 15.7578 38.4609 15.7617 38.5 15.7617C38.5938 15.8477 38.6523 15.9141 38.6758 15.9609C38.6992 16.0078 38.7305 16.0508 38.7695 16.0898C38.8086 16.1602 38.8359 16.1953 38.8516 16.1953C38.8516 16.2109 38.8398 16.2383 38.8164 16.2773C38.793 16.3086 38.7773 16.3359 38.7695 16.3594ZM43.9492 9.53906C44.0117 9.63281 44.0625 9.73047 44.1016 9.83203C44.1484 9.92578 44.1719 9.99219 44.1719 10.0312C44.1719 10.0859 44.1641 10.1328 44.1484 10.1719C44.1328 10.2031 44.1094 10.2422 44.0781 10.2891C43.7812 10.4219 43.4805 10.5586 43.1758 10.6992C42.8789 10.8398 42.5742 10.9727 42.2617 11.0977C42.1836 11.1289 42.1094 11.1602 42.0391 11.1914C41.9688 11.2227 41.8906 11.2539 41.8047 11.2852C41.7891 11.3008 41.7539 11.3164 41.6992 11.332C41.6523 11.3398 41.6094 11.3438 41.5703 11.3438C41.5859 11.5 41.5938 11.6602 41.5938 11.8242C41.6016 11.9883 41.6094 12.1523 41.6172 12.3164C41.6172 12.3633 41.625 12.4102 41.6406 12.457C41.6562 12.4961 41.6641 12.5391 41.6641 12.5859C41.6797 12.7344 41.6875 12.8789 41.6875 13.0195C41.6875 13.1602 41.6953 13.3047 41.7109 13.4531C42 13.3281 42.2852 13.2031 42.5664 13.0781C42.8555 12.9453 43.1445 12.8164 43.4336 12.6914C43.4805 12.6992 43.5312 12.707 43.5859 12.7148C43.6406 12.7227 43.6914 12.7383 43.7383 12.7617C43.7539 12.7773 43.7695 12.7969 43.7852 12.8203C43.8008 12.8438 43.8203 12.8633 43.8438 12.8789C43.8438 12.918 43.8672 12.9766 43.9141 13.0547C43.9688 13.125 43.9961 13.2031 43.9961 13.2891C43.9961 13.3047 44.0078 13.332 44.0312 13.3711C44.0547 13.4023 44.0703 13.4258 44.0781 13.4414C44.0781 13.5195 44.0742 13.5625 44.0664 13.5703C44.1211 13.6094 44.1562 13.6602 44.1719 13.7227C44.1953 13.7852 44.207 13.8477 44.207 13.9102C44.0664 14.0664 43.9258 14.1719 43.7852 14.2266C43.6523 14.2812 43.5156 14.3398 43.375 14.4023C43.3359 14.4258 43.293 14.4492 43.2461 14.4727C43.1992 14.4961 43.1523 14.5195 43.1055 14.543C43.043 14.5664 42.9805 14.5898 42.918 14.6133C42.8633 14.6289 42.8047 14.6523 42.7422 14.6836C42.6484 14.7383 42.543 14.8008 42.4258 14.8711C42.3086 14.9414 42.2031 14.9844 42.1094 15C42.0469 15.0156 41.9922 15.0273 41.9453 15.0352C41.9062 15.0352 41.8594 15.0547 41.8047 15.0938C41.7969 15.1875 41.793 15.2812 41.793 15.375C41.8008 15.4609 41.8047 15.5469 41.8047 15.6328C41.8047 15.7266 41.7969 15.8203 41.7812 15.9141C41.7734 16 41.7695 16.0898 41.7695 16.1836C41.7695 16.3398 41.7617 16.4961 41.7461 16.6523C41.7305 16.8008 41.7227 16.9492 41.7227 17.0977C41.7227 17.1914 41.7266 17.2852 41.7344 17.3789C41.7422 17.4648 41.7461 17.5508 41.7461 17.6367C41.7461 17.6836 41.7383 17.7266 41.7227 17.7656C41.707 17.8047 41.6914 17.8438 41.6758 17.8828C41.5664 17.8984 41.5 17.8984 41.4766 17.8828C41.4531 17.8594 41.4258 17.8398 41.3945 17.8242C41.3555 17.8242 41.3281 17.8398 41.3125 17.8711C41.3047 17.9023 41.2812 17.9258 41.2422 17.9414C41.2109 17.9336 41.1758 17.9336 41.1367 17.9414C41.1055 17.9414 41.0781 17.9336 41.0547 17.918C40.9922 17.9414 40.9336 17.9688 40.8789 18C40.832 18.0312 40.7773 18.0547 40.7148 18.0703C40.5977 18.0547 40.5234 18.0469 40.4922 18.0469C40.4688 18.0547 40.4414 18.0625 40.4102 18.0703C40.3555 18.0156 40.3281 17.9492 40.3281 17.8711C40.3359 17.7852 40.3164 17.7109 40.2695 17.6484C40.2695 17.5703 40.2617 17.5234 40.2461 17.5078C40.2305 17.4844 40.2227 17.4648 40.2227 17.4492C40.2227 17.4258 40.2227 17.4023 40.2227 17.3789C40.2305 17.3477 40.2344 17.3164 40.2344 17.2852C40.2344 17.2148 40.2305 17.1602 40.2227 17.1211C40.2305 17.0742 40.2383 17.0039 40.2461 16.9102C40.2539 16.8086 40.2617 16.707 40.2695 16.6055C40.2773 16.4961 40.2812 16.3906 40.2812 16.2891C40.2812 16.1875 40.2812 16.1055 40.2812 16.043C40.2812 16.0039 40.2891 15.9727 40.3047 15.9492C40.3203 15.918 40.3281 15.8828 40.3281 15.8438C40.3281 15.7812 40.3242 15.7266 40.3164 15.6797C40.3164 15.625 40.3164 15.5703 40.3164 15.5156C40.3164 15.4062 40.3164 15.2969 40.3164 15.1875C40.3242 15.0781 40.3281 14.9688 40.3281 14.8594C40.3281 14.5234 40.3086 14.1953 40.2695 13.875C40.2383 13.5469 40.2227 13.2188 40.2227 12.8906C40.2227 12.7109 40.2148 12.5156 40.1992 12.3047C40.1836 12.0859 40.1641 11.8867 40.1406 11.707C40.1406 11.668 40.1328 11.6367 40.1172 11.6133C40.1094 11.582 40.1055 11.5508 40.1055 11.5195C40.0977 11.4258 40.0938 11.332 40.0938 11.2383C40.0938 11.1367 40.0938 11.0352 40.0938 10.9336C40.0938 10.8711 40.0938 10.7852 40.0938 10.6758C40.0938 10.5586 40.0938 10.4414 40.0938 10.3242C40.0938 10.1992 40.0938 10.082 40.0938 9.97266C40.1016 9.86328 40.1094 9.78516 40.1172 9.73828C40.1172 9.73047 40.1406 9.71875 40.1875 9.70312C40.2344 9.67969 40.2656 9.66797 40.2812 9.66797C40.3203 9.66797 40.3516 9.67969 40.375 9.70312C40.3984 9.72656 40.4258 9.75 40.457 9.77344C40.4883 9.75 40.5195 9.73828 40.5508 9.73828C40.5898 9.73828 40.6289 9.73828 40.668 9.73828C40.7852 9.71484 40.8555 9.71875 40.8789 9.75C40.9102 9.77344 40.9336 9.78516 40.9492 9.78516C40.9727 9.78516 40.9922 9.77344 41.0078 9.75C41.0234 9.72656 41.043 9.71484 41.0664 9.71484C41.1289 9.71484 41.1641 9.73047 41.1719 9.76172C41.1875 9.79297 41.2109 9.80859 41.2422 9.80859C41.2734 9.80859 41.2969 9.79688 41.3125 9.77344C41.3281 9.75 41.3438 9.73828 41.3594 9.73828C41.3828 9.73828 41.4062 9.74609 41.4297 9.76172C41.4531 9.76953 41.4766 9.77344 41.5 9.77344C41.5391 9.77344 41.582 9.76172 41.6289 9.73828C41.6758 9.70703 41.7188 9.68359 41.7578 9.66797C41.8203 9.65234 41.875 9.63281 41.9219 9.60938C41.9766 9.58594 42.0312 9.56641 42.0859 9.55078C42.2031 9.48047 42.2891 9.4375 42.3438 9.42188C42.4062 9.39844 42.4688 9.37109 42.5312 9.33984C42.6641 9.27734 42.7891 9.21875 42.9062 9.16406C43.0312 9.10156 43.1602 9.04297 43.293 8.98828C43.3633 8.98828 43.4102 8.97266 43.4336 8.94141C43.4883 8.96484 43.5586 8.96875 43.6445 8.95312C43.7383 9.03906 43.7969 9.10547 43.8203 9.15234C43.8516 9.19922 43.8867 9.24219 43.9258 9.28125C43.9727 9.34375 44.0039 9.375 44.0195 9.375C44.0195 9.39844 44.0078 9.42578 43.9844 9.45703C43.9609 9.48828 43.9492 9.51562 43.9492 9.53906ZM49.1289 9.53906C49.1914 9.63281 49.2422 9.73047 49.2812 9.83203C49.3281 9.92578 49.3516 9.99219 49.3516 10.0312C49.3516 10.0859 49.3438 10.1328 49.3281 10.1719C49.3125 10.2031 49.2891 10.2422 49.2578 10.2891C48.9609 10.4219 48.6602 10.5586 48.3555 10.6992C48.0586 10.8398 47.7539 10.9727 47.4414 11.0977C47.3633 11.1289 47.2891 11.1602 47.2188 11.1914C47.1484 11.2227 47.0703 11.2539 46.9844 11.2852C46.9688 11.3008 46.9336 11.3164 46.8789 11.332C46.832 11.3398 46.7891 11.3438 46.75 11.3438C46.7656 11.5 46.7734 11.6602 46.7734 11.8242C46.7812 11.9883 46.7891 12.1523 46.7969 12.3164C46.7969 12.3633 46.8047 12.4102 46.8203 12.457C46.8359 12.4961 46.8438 12.5391 46.8438 12.5859C46.8594 12.7344 46.8672 12.8789 46.8672 13.0195C46.8672 13.1602 46.875 13.3047 46.8906 13.4531C47.1797 13.3281 47.4648 13.2031 47.7461 13.0781C48.0352 12.9453 48.3242 12.8164 48.6133 12.6914C48.6602 12.6992 48.7109 12.707 48.7656 12.7148C48.8203 12.7227 48.8711 12.7383 48.918 12.7617C48.9336 12.7773 48.9492 12.7969 48.9648 12.8203C48.9805 12.8438 49 12.8633 49.0234 12.8789C49.0234 12.918 49.0469 12.9766 49.0938 13.0547C49.1484 13.125 49.1758 13.2031 49.1758 13.2891C49.1758 13.3047 49.1875 13.332 49.2109 13.3711C49.2344 13.4023 49.25 13.4258 49.2578 13.4414C49.2578 13.5195 49.2539 13.5625 49.2461 13.5703C49.3008 13.6094 49.3359 13.6602 49.3516 13.7227C49.375 13.7852 49.3867 13.8477 49.3867 13.9102C49.2461 14.0664 49.1055 14.1719 48.9648 14.2266C48.832 14.2812 48.6953 14.3398 48.5547 14.4023C48.5156 14.4258 48.4727 14.4492 48.4258 14.4727C48.3789 14.4961 48.332 14.5195 48.2852 14.543C48.2227 14.5664 48.1602 14.5898 48.0977 14.6133C48.043 14.6289 47.9844 14.6523 47.9219 14.6836C47.8281 14.7383 47.7227 14.8008 47.6055 14.8711C47.4883 14.9414 47.3828 14.9844 47.2891 15C47.2266 15.0156 47.1719 15.0273 47.125 15.0352C47.0859 15.0352 47.0391 15.0547 46.9844 15.0938C46.9766 15.1875 46.9727 15.2812 46.9727 15.375C46.9805 15.4609 46.9844 15.5469 46.9844 15.6328C46.9844 15.7266 46.9766 15.8203 46.9609 15.9141C46.9531 16 46.9492 16.0898 46.9492 16.1836C46.9492 16.3398 46.9414 16.4961 46.9258 16.6523C46.9102 16.8008 46.9023 16.9492 46.9023 17.0977C46.9023 17.1914 46.9062 17.2852 46.9141 17.3789C46.9219 17.4648 46.9258 17.5508 46.9258 17.6367C46.9258 17.6836 46.918 17.7266 46.9023 17.7656C46.8867 17.8047 46.8711 17.8438 46.8555 17.8828C46.7461 17.8984 46.6797 17.8984 46.6562 17.8828C46.6328 17.8594 46.6055 17.8398 46.5742 17.8242C46.5352 17.8242 46.5078 17.8398 46.4922 17.8711C46.4844 17.9023 46.4609 17.9258 46.4219 17.9414C46.3906 17.9336 46.3555 17.9336 46.3164 17.9414C46.2852 17.9414 46.2578 17.9336 46.2344 17.918C46.1719 17.9414 46.1133 17.9688 46.0586 18C46.0117 18.0312 45.957 18.0547 45.8945 18.0703C45.7773 18.0547 45.7031 18.0469 45.6719 18.0469C45.6484 18.0547 45.6211 18.0625 45.5898 18.0703C45.5352 18.0156 45.5078 17.9492 45.5078 17.8711C45.5156 17.7852 45.4961 17.7109 45.4492 17.6484C45.4492 17.5703 45.4414 17.5234 45.4258 17.5078C45.4102 17.4844 45.4023 17.4648 45.4023 17.4492C45.4023 17.4258 45.4023 17.4023 45.4023 17.3789C45.4102 17.3477 45.4141 17.3164 45.4141 17.2852C45.4141 17.2148 45.4102 17.1602 45.4023 17.1211C45.4102 17.0742 45.418 17.0039 45.4258 16.9102C45.4336 16.8086 45.4414 16.707 45.4492 16.6055C45.457 16.4961 45.4609 16.3906 45.4609 16.2891C45.4609 16.1875 45.4609 16.1055 45.4609 16.043C45.4609 16.0039 45.4688 15.9727 45.4844 15.9492C45.5 15.918 45.5078 15.8828 45.5078 15.8438C45.5078 15.7812 45.5039 15.7266 45.4961 15.6797C45.4961 15.625 45.4961 15.5703 45.4961 15.5156C45.4961 15.4062 45.4961 15.2969 45.4961 15.1875C45.5039 15.0781 45.5078 14.9688 45.5078 14.8594C45.5078 14.5234 45.4883 14.1953 45.4492 13.875C45.418 13.5469 45.4023 13.2188 45.4023 12.8906C45.4023 12.7109 45.3945 12.5156 45.3789 12.3047C45.3633 12.0859 45.3438 11.8867 45.3203 11.707C45.3203 11.668 45.3125 11.6367 45.2969 11.6133C45.2891 11.582 45.2852 11.5508 45.2852 11.5195C45.2773 11.4258 45.2734 11.332 45.2734 11.2383C45.2734 11.1367 45.2734 11.0352 45.2734 10.9336C45.2734 10.8711 45.2734 10.7852 45.2734 10.6758C45.2734 10.5586 45.2734 10.4414 45.2734 10.3242C45.2734 10.1992 45.2734 10.082 45.2734 9.97266C45.2812 9.86328 45.2891 9.78516 45.2969 9.73828C45.2969 9.73047 45.3203 9.71875 45.3672 9.70312C45.4141 9.67969 45.4453 9.66797 45.4609 9.66797C45.5 9.66797 45.5312 9.67969 45.5547 9.70312C45.5781 9.72656 45.6055 9.75 45.6367 9.77344C45.668 9.75 45.6992 9.73828 45.7305 9.73828C45.7695 9.73828 45.8086 9.73828 45.8477 9.73828C45.9648 9.71484 46.0352 9.71875 46.0586 9.75C46.0898 9.77344 46.1133 9.78516 46.1289 9.78516C46.1523 9.78516 46.1719 9.77344 46.1875 9.75C46.2031 9.72656 46.2227 9.71484 46.2461 9.71484C46.3086 9.71484 46.3438 9.73047 46.3516 9.76172C46.3672 9.79297 46.3906 9.80859 46.4219 9.80859C46.4531 9.80859 46.4766 9.79688 46.4922 9.77344C46.5078 9.75 46.5234 9.73828 46.5391 9.73828C46.5625 9.73828 46.5859 9.74609 46.6094 9.76172C46.6328 9.76953 46.6562 9.77344 46.6797 9.77344C46.7188 9.77344 46.7617 9.76172 46.8086 9.73828C46.8555 9.70703 46.8984 9.68359 46.9375 9.66797C47 9.65234 47.0547 9.63281 47.1016 9.60938C47.1562 9.58594 47.2109 9.56641 47.2656 9.55078C47.3828 9.48047 47.4688 9.4375 47.5234 9.42188C47.5859 9.39844 47.6484 9.37109 47.7109 9.33984C47.8438 9.27734 47.9688 9.21875 48.0859 9.16406C48.2109 9.10156 48.3398 9.04297 48.4727 8.98828C48.543 8.98828 48.5898 8.97266 48.6133 8.94141C48.668 8.96484 48.7383 8.96875 48.8242 8.95312C48.918 9.03906 48.9766 9.10547 49 9.15234C49.0312 9.19922 49.0664 9.24219 49.1055 9.28125C49.1523 9.34375 49.1836 9.375 49.1992 9.375C49.1992 9.39844 49.1875 9.42578 49.1641 9.45703C49.1406 9.48828 49.1289 9.51562 49.1289 9.53906ZM54.0273 16.6523C54.0117 16.6992 54.0039 16.7422 54.0039 16.7812C54.0039 16.8281 54.0078 16.875 54.0156 16.9219C54.0312 16.9688 54.0391 17.0156 54.0391 17.0625C54.0234 17.2031 54.0117 17.2891 54.0039 17.3203C53.957 17.3594 53.8594 17.4062 53.7109 17.4609C53.5703 17.5078 53.3984 17.5586 53.1953 17.6133C53 17.6602 52.7852 17.7109 52.5508 17.7656C52.3242 17.8125 52.1055 17.8594 51.8945 17.9062C51.6836 17.9531 51.4883 17.9922 51.3086 18.0234C51.1367 18.0625 51.0078 18.0898 50.9219 18.1055C50.8828 18.1133 50.8438 18.1211 50.8047 18.1289C50.7734 18.1445 50.7383 18.1602 50.6992 18.1758C50.6602 18.1836 50.6211 18.1836 50.582 18.1758C50.543 18.1758 50.5039 18.1836 50.4648 18.1992C50.4414 18.1992 50.418 18.1875 50.3945 18.1641C50.3789 18.1406 50.3633 18.1211 50.3477 18.1055C50.3477 18.0586 50.3398 18.0234 50.3242 18C50.3086 17.9766 50.2891 17.957 50.2656 17.9414C50.25 17.9258 50.2344 17.9102 50.2188 17.8945C50.2031 17.8711 50.1953 17.8359 50.1953 17.7891C50.1797 17.7266 50.1562 17.6797 50.125 17.6484C50.1016 17.6094 50.0898 17.5742 50.0898 17.543C50.0586 17.4414 50.043 17.3516 50.043 17.2734C50.043 17.2344 50.0469 17.2031 50.0547 17.1797C50.0625 17.1562 50.0742 17.1328 50.0898 17.1094C50.1367 17.0938 50.1719 17.0742 50.1953 17.0508C50.2188 17.0273 50.25 17.0078 50.2891 16.9922C50.3359 16.9688 50.4023 16.9492 50.4883 16.9336C50.5742 16.9102 50.668 16.8867 50.7695 16.8633C50.8711 16.8398 50.9688 16.8164 51.0625 16.793C51.1562 16.7695 51.2344 16.7461 51.2969 16.7227C51.3203 16.7148 51.3438 16.7109 51.3672 16.7109C51.3906 16.7109 51.4102 16.7031 51.4258 16.6875C51.4102 16.5625 51.3984 16.4375 51.3906 16.3125C51.3906 16.1875 51.3828 16.0664 51.3672 15.9492C51.3672 15.8945 51.3633 15.8398 51.3555 15.7852C51.3477 15.7305 51.3438 15.6797 51.3438 15.6328L51.3555 15.3867C51.3555 15.0898 51.3438 14.793 51.3203 14.4961C51.2969 14.1992 51.2852 13.9023 51.2852 13.6055V13.207C51.2852 13.1445 51.2812 13.0859 51.2734 13.0312C51.2734 12.9766 51.2734 12.918 51.2734 12.8555C51.2734 12.707 51.2734 12.5664 51.2734 12.4336C51.2812 12.293 51.2852 12.1484 51.2852 12V10.9219C51.1133 10.8828 50.9531 10.8867 50.8047 10.9336C50.6562 10.9727 50.5039 11 50.3477 11.0156C50.293 10.9609 50.2617 10.9023 50.2539 10.8398C50.1914 10.7539 50.1484 10.6992 50.125 10.6758C50.1016 10.6523 50.0742 10.5859 50.043 10.4766C49.9883 10.3672 49.9414 10.3008 49.9023 10.2773C49.8711 10.2461 49.8555 10.1992 49.8555 10.1367C49.8555 10.0977 49.8633 10.0703 49.8789 10.0547C49.9023 10.0391 49.9219 10.0117 49.9375 9.97266C50.0078 9.94141 50.0469 9.92188 50.0547 9.91406C50.0703 9.89844 50.0859 9.88672 50.1016 9.87891C50.1797 9.82422 50.2695 9.78516 50.3711 9.76172C50.4727 9.73828 50.5703 9.71094 50.6641 9.67969C50.7422 9.65625 50.8164 9.62891 50.8867 9.59766C50.957 9.56641 51.0352 9.53906 51.1211 9.51562C51.2227 9.48438 51.3242 9.45312 51.4258 9.42188C51.5273 9.39062 51.625 9.36328 51.7188 9.33984C51.7812 9.32422 51.8398 9.32031 51.8945 9.32812C51.957 9.32812 52.0195 9.30859 52.082 9.26953C52.1836 9.28516 52.2891 9.28516 52.3984 9.26953C52.5156 9.24609 52.6406 9.21875 52.7734 9.1875C52.9062 9.15625 53.0352 9.12891 53.1602 9.10547C53.2852 9.08203 53.3789 9.0625 53.4414 9.04688C53.4805 9.0625 53.5078 9.08203 53.5234 9.10547C53.5391 9.12891 53.5625 9.14453 53.5938 9.15234C53.6016 9.17578 53.6094 9.20703 53.6172 9.24609C53.625 9.27734 53.6406 9.30078 53.6641 9.31641C53.6641 9.40234 53.6836 9.46484 53.7227 9.50391C53.7148 9.58203 53.7266 9.67188 53.7578 9.77344C53.7969 9.86719 53.8164 9.95703 53.8164 10.043C53.7773 10.1602 53.7109 10.2344 53.6172 10.2656C53.5312 10.2969 53.4336 10.3242 53.3242 10.3477C53.2227 10.3711 53.1211 10.3945 53.0195 10.418C52.918 10.4336 52.8359 10.4531 52.7734 10.4766C52.7734 10.5859 52.7734 10.6992 52.7734 10.8164C52.7812 10.9336 52.7852 11.0508 52.7852 11.168C52.7852 11.2773 52.7812 11.3867 52.7734 11.4961C52.7734 11.6055 52.7734 11.7148 52.7734 11.8242C52.7734 11.9883 52.7695 12.1562 52.7617 12.3281C52.7617 12.5 52.7617 12.6719 52.7617 12.8438C52.7617 13.0859 52.7656 13.3281 52.7734 13.5703C52.7812 13.8125 52.793 14.0547 52.8086 14.2969C52.8164 14.3359 52.8203 14.3945 52.8203 14.4727C52.8203 14.7852 52.8242 15.0938 52.832 15.3984C52.8477 15.6953 52.8711 16.0039 52.9023 16.3242C53.0039 16.332 53.082 16.3164 53.1367 16.2773C53.1758 16.2773 53.2109 16.2695 53.2422 16.2539C53.2812 16.2383 53.3164 16.2227 53.3477 16.207C53.3945 16.1992 53.457 16.1875 53.5352 16.1719C53.6211 16.1484 53.6758 16.1367 53.6992 16.1367C53.7695 16.1445 53.8125 16.1445 53.8281 16.1367C53.8516 16.1836 53.8867 16.2188 53.9336 16.2422C53.9492 16.3125 53.9609 16.3828 53.9688 16.4531C53.9844 16.5156 54.0039 16.582 54.0273 16.6523ZM57.0859 14.8008C57.1016 14.8398 57.1602 14.9258 57.2617 15.0586C57.3633 15.1836 57.4766 15.3242 57.6016 15.4805C57.7344 15.6289 57.8633 15.7734 57.9883 15.9141C58.1133 16.0547 58.1992 16.1562 58.2461 16.2188C58.3945 16.4375 58.5469 16.6523 58.7031 16.8633C58.8594 17.0742 59.0078 17.293 59.1484 17.5195C59.1875 17.5586 59.2188 17.6094 59.2422 17.6719C59.2656 17.7266 59.2773 17.7852 59.2773 17.8477C59.2773 17.918 59.2578 17.957 59.2188 17.9648C59.1875 17.9648 59.1523 17.9727 59.1133 17.9883C59.0352 18.043 58.9648 18.0742 58.9023 18.082C58.8398 18.0898 58.7891 18.0938 58.75 18.0938C58.6641 18.0938 58.5703 18.0898 58.4688 18.082C58.3672 18.082 58.2812 18.0898 58.2109 18.1055C58.1875 18.1133 58.1602 18.125 58.1289 18.1406C58.0977 18.1641 58.0742 18.1758 58.0586 18.1758C57.9961 18.1758 57.9492 18.1641 57.918 18.1406C57.8945 18.125 57.8594 18.1094 57.8125 18.0938C57.75 18.0234 57.6914 17.9492 57.6367 17.8711C57.5898 17.793 57.5391 17.7148 57.4844 17.6367C57.4375 17.582 57.3867 17.5352 57.332 17.4961C57.2773 17.4492 57.2266 17.3945 57.1797 17.332C57.0547 17.1523 56.9258 16.9805 56.793 16.8164C56.668 16.6523 56.5391 16.4883 56.4062 16.3242C56.3438 16.2383 56.2734 16.1562 56.1953 16.0781C56.125 16 56.0586 15.9219 55.9961 15.8438C55.9336 15.7578 55.875 15.668 55.8203 15.5742C55.7656 15.4805 55.707 15.3906 55.6445 15.3047C55.5977 15.2266 55.5312 15.1328 55.4453 15.0234C55.3594 14.9062 55.2695 14.7891 55.1758 14.6719C55.082 14.5547 54.9844 14.4453 54.8828 14.3438C54.7891 14.2344 54.707 14.1523 54.6367 14.0977C54.6367 14.043 54.6211 14.0039 54.5898 13.9805C54.5586 13.957 54.5234 13.9297 54.4844 13.8984C54.4688 13.8594 54.4492 13.8242 54.4258 13.793C54.4023 13.7539 54.3906 13.7109 54.3906 13.6641C54.3906 13.6328 54.3945 13.6055 54.4023 13.582C54.4102 13.5586 54.418 13.5352 54.4258 13.5117C54.4414 13.4805 54.4492 13.4531 54.4492 13.4297C54.457 13.3984 54.4688 13.3672 54.4844 13.3359C54.5234 13.2344 54.5781 13.1445 54.6484 13.0664C54.7266 12.9883 54.7852 12.8984 54.8242 12.7969C54.832 12.7656 54.8359 12.7383 54.8359 12.7148C54.8359 12.6836 54.8438 12.6523 54.8594 12.6211C54.8828 12.5742 54.918 12.5273 54.9648 12.4805C55.0117 12.4336 55.0547 12.3828 55.0938 12.3281C55.1328 12.2578 55.1719 12.1875 55.2109 12.1172C55.25 12.0469 55.2891 11.9766 55.3281 11.9062C55.4375 11.7266 55.5586 11.5547 55.6914 11.3906C55.8242 11.2188 55.9492 11.0508 56.0664 10.8867C56.1758 10.7305 56.2773 10.5781 56.3711 10.4297C56.4648 10.2734 56.5664 10.1172 56.6758 9.96094C56.7305 9.88281 56.793 9.79688 56.8633 9.70312C56.9336 9.60156 57.0039 9.50391 57.0742 9.41016C57.1523 9.31641 57.2305 9.23047 57.3086 9.15234C57.3867 9.06641 57.4648 9.00391 57.543 8.96484C57.6758 8.94922 57.7617 8.97266 57.8008 9.03516C57.8398 9.08984 57.8945 9.11719 57.9648 9.11719C58.0742 9.14062 58.1484 9.17578 58.1875 9.22266C58.2266 9.26953 58.2656 9.3125 58.3047 9.35156C58.4062 9.35156 58.4922 9.37109 58.5625 9.41016C58.6328 9.44922 58.7031 9.50781 58.7734 9.58594C58.7422 9.67188 58.6992 9.75 58.6445 9.82031C58.5977 9.89062 58.5547 9.96484 58.5156 10.043C58.4531 10.0664 58.4062 10.1055 58.375 10.1602C58.3516 10.2148 58.3125 10.2617 58.2578 10.3008C58.1719 10.4336 58.0859 10.5664 58 10.6992C57.9141 10.8242 57.8281 10.9453 57.7422 11.0625C57.7031 11.1094 57.6562 11.1484 57.6016 11.1797C57.5547 11.2031 57.5156 11.2422 57.4844 11.2969C57.4688 11.3203 57.457 11.3477 57.4492 11.3789C57.4414 11.4023 57.4297 11.4258 57.4141 11.4492C57.3203 11.5977 57.2148 11.7422 57.0977 11.8828C56.9805 12.0234 56.8789 12.1719 56.793 12.3281C56.7539 12.3828 56.7227 12.4414 56.6992 12.5039C56.6758 12.5586 56.6484 12.6133 56.6172 12.668C56.5859 12.7148 56.5391 12.7812 56.4766 12.8672C56.4219 12.9531 56.3633 13.043 56.3008 13.1367C56.2461 13.2227 56.1953 13.3086 56.1484 13.3945C56.1094 13.4727 56.0898 13.5391 56.0898 13.5938C56.0977 13.6328 56.1484 13.7109 56.2422 13.8281C56.3359 13.9453 56.4375 14.0703 56.5469 14.2031C56.6641 14.3359 56.7734 14.4609 56.875 14.5781C56.9844 14.6953 57.0547 14.7695 57.0859 14.8008ZM63.4375 16.6523C63.4219 16.6992 63.4141 16.7422 63.4141 16.7812C63.4141 16.8281 63.418 16.875 63.4258 16.9219C63.4414 16.9688 63.4492 17.0156 63.4492 17.0625C63.4336 17.2031 63.4219 17.2891 63.4141 17.3203C63.3672 17.3594 63.2695 17.4062 63.1211 17.4609C62.9805 17.5078 62.8086 17.5586 62.6055 17.6133C62.4102 17.6602 62.1953 17.7109 61.9609 17.7656C61.7344 17.8125 61.5156 17.8594 61.3047 17.9062C61.0938 17.9531 60.8984 17.9922 60.7188 18.0234C60.5469 18.0625 60.418 18.0898 60.332 18.1055C60.293 18.1133 60.2539 18.1211 60.2148 18.1289C60.1836 18.1445 60.1484 18.1602 60.1094 18.1758C60.0703 18.1836 60.0312 18.1836 59.9922 18.1758C59.9531 18.1758 59.9141 18.1836 59.875 18.1992C59.8516 18.1992 59.8281 18.1875 59.8047 18.1641C59.7891 18.1406 59.7734 18.1211 59.7578 18.1055C59.7578 18.0586 59.75 18.0234 59.7344 18C59.7188 17.9766 59.6992 17.957 59.6758 17.9414C59.6602 17.9258 59.6445 17.9102 59.6289 17.8945C59.6133 17.8711 59.6055 17.8359 59.6055 17.7891C59.5898 17.7266 59.5664 17.6797 59.5352 17.6484C59.5117 17.6094 59.5 17.5742 59.5 17.543C59.4688 17.4414 59.4531 17.3516 59.4531 17.2734C59.4531 17.2344 59.457 17.2031 59.4648 17.1797C59.4727 17.1562 59.4844 17.1328 59.5 17.1094C59.5469 17.0938 59.582 17.0742 59.6055 17.0508C59.6289 17.0273 59.6602 17.0078 59.6992 16.9922C59.7461 16.9688 59.8125 16.9492 59.8984 16.9336C59.9844 16.9102 60.0781 16.8867 60.1797 16.8633C60.2812 16.8398 60.3789 16.8164 60.4727 16.793C60.5664 16.7695 60.6445 16.7461 60.707 16.7227C60.7305 16.7148 60.7539 16.7109 60.7773 16.7109C60.8008 16.7109 60.8203 16.7031 60.8359 16.6875C60.8203 16.5625 60.8086 16.4375 60.8008 16.3125C60.8008 16.1875 60.793 16.0664 60.7773 15.9492C60.7773 15.8945 60.7734 15.8398 60.7656 15.7852C60.7578 15.7305 60.7539 15.6797 60.7539 15.6328L60.7656 15.3867C60.7656 15.0898 60.7539 14.793 60.7305 14.4961C60.707 14.1992 60.6953 13.9023 60.6953 13.6055V13.207C60.6953 13.1445 60.6914 13.0859 60.6836 13.0312C60.6836 12.9766 60.6836 12.918 60.6836 12.8555C60.6836 12.707 60.6836 12.5664 60.6836 12.4336C60.6914 12.293 60.6953 12.1484 60.6953 12V10.9219C60.5234 10.8828 60.3633 10.8867 60.2148 10.9336C60.0664 10.9727 59.9141 11 59.7578 11.0156C59.7031 10.9609 59.6719 10.9023 59.6641 10.8398C59.6016 10.7539 59.5586 10.6992 59.5352 10.6758C59.5117 10.6523 59.4844 10.5859 59.4531 10.4766C59.3984 10.3672 59.3516 10.3008 59.3125 10.2773C59.2812 10.2461 59.2656 10.1992 59.2656 10.1367C59.2656 10.0977 59.2734 10.0703 59.2891 10.0547C59.3125 10.0391 59.332 10.0117 59.3477 9.97266C59.418 9.94141 59.457 9.92188 59.4648 9.91406C59.4805 9.89844 59.4961 9.88672 59.5117 9.87891C59.5898 9.82422 59.6797 9.78516 59.7812 9.76172C59.8828 9.73828 59.9805 9.71094 60.0742 9.67969C60.1523 9.65625 60.2266 9.62891 60.2969 9.59766C60.3672 9.56641 60.4453 9.53906 60.5312 9.51562C60.6328 9.48438 60.7344 9.45312 60.8359 9.42188C60.9375 9.39062 61.0352 9.36328 61.1289 9.33984C61.1914 9.32422 61.25 9.32031 61.3047 9.32812C61.3672 9.32812 61.4297 9.30859 61.4922 9.26953C61.5938 9.28516 61.6992 9.28516 61.8086 9.26953C61.9258 9.24609 62.0508 9.21875 62.1836 9.1875C62.3164 9.15625 62.4453 9.12891 62.5703 9.10547C62.6953 9.08203 62.7891 9.0625 62.8516 9.04688C62.8906 9.0625 62.918 9.08203 62.9336 9.10547C62.9492 9.12891 62.9727 9.14453 63.0039 9.15234C63.0117 9.17578 63.0195 9.20703 63.0273 9.24609C63.0352 9.27734 63.0508 9.30078 63.0742 9.31641C63.0742 9.40234 63.0938 9.46484 63.1328 9.50391C63.125 9.58203 63.1367 9.67188 63.168 9.77344C63.207 9.86719 63.2266 9.95703 63.2266 10.043C63.1875 10.1602 63.1211 10.2344 63.0273 10.2656C62.9414 10.2969 62.8438 10.3242 62.7344 10.3477C62.6328 10.3711 62.5312 10.3945 62.4297 10.418C62.3281 10.4336 62.2461 10.4531 62.1836 10.4766C62.1836 10.5859 62.1836 10.6992 62.1836 10.8164C62.1914 10.9336 62.1953 11.0508 62.1953 11.168C62.1953 11.2773 62.1914 11.3867 62.1836 11.4961C62.1836 11.6055 62.1836 11.7148 62.1836 11.8242C62.1836 11.9883 62.1797 12.1562 62.1719 12.3281C62.1719 12.5 62.1719 12.6719 62.1719 12.8438C62.1719 13.0859 62.1758 13.3281 62.1836 13.5703C62.1914 13.8125 62.2031 14.0547 62.2188 14.2969C62.2266 14.3359 62.2305 14.3945 62.2305 14.4727C62.2305 14.7852 62.2344 15.0938 62.2422 15.3984C62.2578 15.6953 62.2812 16.0039 62.3125 16.3242C62.4141 16.332 62.4922 16.3164 62.5469 16.2773C62.5859 16.2773 62.6211 16.2695 62.6523 16.2539C62.6914 16.2383 62.7266 16.2227 62.7578 16.207C62.8047 16.1992 62.8672 16.1875 62.9453 16.1719C63.0312 16.1484 63.0859 16.1367 63.1094 16.1367C63.1797 16.1445 63.2227 16.1445 63.2383 16.1367C63.2617 16.1836 63.2969 16.2188 63.3438 16.2422C63.3594 16.3125 63.3711 16.3828 63.3789 16.4531C63.3945 16.5156 63.4141 16.582 63.4375 16.6523ZM70.2109 13.3477C70.1953 13.3789 70.1797 13.4102 70.1641 13.4414C70.1484 13.4648 70.1367 13.4922 70.1289 13.5234C70.1602 13.5547 70.1875 13.5898 70.2109 13.6289C70.2422 13.6602 70.2578 13.6953 70.2578 13.7344C70.2578 13.7656 70.25 13.7969 70.2344 13.8281C70.2266 13.8516 70.2266 13.875 70.2344 13.8984C70.2031 13.9531 70.168 14.0039 70.1289 14.0508C70.0977 14.0977 70.0742 14.1484 70.0586 14.2031C70.0273 14.2344 70 14.2656 69.9766 14.2969C69.9609 14.3281 69.9453 14.3594 69.9297 14.3906C69.8906 14.4062 69.8633 14.4336 69.8477 14.4727C69.8398 14.5039 69.8203 14.5312 69.7891 14.5547C69.7812 14.5859 69.7422 14.6602 69.6719 14.7773C69.6016 14.8945 69.5234 15.0195 69.4375 15.1523C69.3516 15.2852 69.2695 15.4141 69.1914 15.5391C69.1133 15.6641 69.0586 15.7461 69.0273 15.7852C69.0117 15.8242 68.9922 15.8555 68.9688 15.8789C68.9531 15.9023 68.9336 15.9297 68.9102 15.9609C68.8945 15.9844 68.8828 16.0117 68.875 16.043C68.8672 16.0664 68.8555 16.0859 68.8398 16.1016C68.8242 16.1328 68.8047 16.1602 68.7812 16.1836C68.7656 16.207 68.75 16.2383 68.7344 16.2773C68.6562 16.3789 68.5781 16.5 68.5 16.6406C68.4219 16.7812 68.3477 16.9062 68.2773 17.0156C68.2383 17.0781 68.1992 17.1406 68.1602 17.2031C68.1289 17.2656 68.0938 17.3281 68.0547 17.3906C68.0156 17.4531 67.9766 17.5117 67.9375 17.5664C67.8984 17.6211 67.8594 17.6797 67.8203 17.7422C67.7578 17.7891 67.7031 17.8477 67.6562 17.918C67.6094 17.9805 67.5547 18.0352 67.4922 18.082C67.3906 18.082 67.3281 18.0352 67.3047 17.9414C67.2031 17.918 67.1523 17.918 67.1523 17.9414C67.1523 17.9648 67.1523 17.9844 67.1523 18C67.1211 18.0156 67.0977 18.0391 67.082 18.0703C67.0742 18.1016 67.0547 18.125 67.0234 18.1406C66.9609 18.125 66.9062 18.0977 66.8594 18.0586C66.8203 18.0273 66.7617 18.0156 66.6836 18.0234C66.6523 17.9766 66.6172 17.9375 66.5781 17.9062C66.5391 17.8672 66.5039 17.8281 66.4727 17.7891C66.457 17.7422 66.4336 17.7031 66.4023 17.6719C66.3789 17.6406 66.3555 17.6094 66.332 17.5781C66.3086 17.5391 66.2852 17.5039 66.2617 17.4727C66.2383 17.4414 66.2148 17.4102 66.1914 17.3789C66.1367 17.3086 66.082 17.2422 66.0273 17.1797C65.9805 17.1094 65.9375 17.0391 65.8984 16.9688C65.8359 16.875 65.7734 16.7812 65.7109 16.6875C65.6562 16.5859 65.5977 16.4883 65.5352 16.3945C65.5039 16.3477 65.4727 16.3008 65.4414 16.2539C65.4102 16.207 65.3828 16.1602 65.3594 16.1133C65.3438 16.0742 65.3203 16.0273 65.2891 15.9727C65.2656 15.918 65.2344 15.8828 65.1953 15.8672C65.1797 15.8047 65.1523 15.7578 65.1133 15.7266C65.0742 15.6953 65.0352 15.6562 64.9961 15.6094C64.9414 15.5469 64.8906 15.4805 64.8438 15.4102C64.7969 15.332 64.75 15.2539 64.7031 15.1758C64.5469 14.957 64.3984 14.7422 64.2578 14.5312C64.125 14.3203 63.9922 14.1016 63.8594 13.875C63.8984 13.75 63.918 13.6562 63.918 13.5938C63.918 13.5312 63.9375 13.4805 63.9766 13.4414C63.9766 13.4102 63.9844 13.3633 64 13.3008C64.1016 13.1289 64.1992 12.9727 64.293 12.832C64.3789 12.6992 64.4375 12.5898 64.4688 12.5039C64.5078 12.418 64.5469 12.3281 64.5859 12.2344C64.625 12.2109 64.6562 12.1836 64.6797 12.1523C64.7031 12.1133 64.7344 12.0781 64.7734 12.0469C64.7891 11.9609 64.8242 11.8906 64.8789 11.8359C64.9336 11.7734 64.9688 11.6992 64.9844 11.6133C65.0547 11.5586 65.0938 11.4961 65.1016 11.4258C65.2031 11.3555 65.2656 11.2617 65.2891 11.1445C65.3516 11.082 65.4023 11.0117 65.4414 10.9336C65.4883 10.8555 65.5312 10.7734 65.5703 10.6875C65.6641 10.6094 65.7383 10.5078 65.793 10.3828C65.8398 10.3516 65.875 10.3086 65.8984 10.2539C65.9219 10.1992 65.9531 10.1523 65.9922 10.1133C66.0547 10.0117 66.1016 9.92969 66.1328 9.86719C66.1719 9.79688 66.2109 9.72656 66.25 9.65625C66.3047 9.65625 66.3398 9.63672 66.3555 9.59766C66.3711 9.55859 66.4023 9.54297 66.4492 9.55078C66.4492 9.48047 66.4688 9.41797 66.5078 9.36328C66.5234 9.35547 66.5469 9.34766 66.5781 9.33984C66.6094 9.32422 66.625 9.30859 66.625 9.29297C66.6094 9.19922 66.6133 9.14453 66.6367 9.12891C66.6602 9.11328 66.6797 9.09766 66.6953 9.08203C66.7812 9.09766 66.8398 9.10938 66.8711 9.11719C66.9023 9.125 66.9531 9.15234 67.0234 9.19922C67.1016 9.19922 67.1562 9.21484 67.1875 9.24609C67.2188 9.27734 67.2539 9.30078 67.293 9.31641C67.3242 9.34766 67.3477 9.37891 67.3633 9.41016C67.3867 9.44141 67.418 9.46484 67.457 9.48047C67.5195 9.56641 67.5859 9.66016 67.6562 9.76172C67.7266 9.86328 67.793 9.95703 67.8555 10.043C67.9414 10.1602 68.0273 10.2734 68.1133 10.3828C68.207 10.4844 68.293 10.5977 68.3711 10.7227C68.3945 10.7617 68.4375 10.832 68.5 10.9336C68.5625 11.0273 68.6328 11.1289 68.7109 11.2383C68.7891 11.3477 68.8594 11.4492 68.9219 11.543C68.9844 11.6289 69.0273 11.6797 69.0508 11.6953C69.0742 11.7344 69.125 11.8086 69.2031 11.918C69.2812 12.0273 69.3633 12.1445 69.4492 12.2695C69.543 12.3867 69.6328 12.5 69.7188 12.6094C69.8047 12.7188 69.8633 12.7891 69.8945 12.8203C69.9805 12.9375 70.043 13.0352 70.082 13.1133C70.1289 13.1836 70.1719 13.2617 70.2109 13.3477ZM67.5273 15.5508C67.6133 15.4336 67.6797 15.3281 67.7266 15.2344C67.7734 15.1406 67.8203 15.0469 67.8672 14.9531C67.9453 14.8594 67.9922 14.793 68.0078 14.7539C68.0234 14.7148 68.043 14.6758 68.0664 14.6367C68.1289 14.543 68.1914 14.4492 68.2539 14.3555C68.3242 14.2617 68.3789 14.1602 68.418 14.0508C68.4648 14.0195 68.5 13.9805 68.5234 13.9336C68.5469 13.8867 68.582 13.8438 68.6289 13.8047C68.582 13.6406 68.5273 13.5156 68.4648 13.4297C68.4023 13.3359 68.3398 13.2461 68.2773 13.1602C68.2539 13.1211 68.2305 13.082 68.207 13.043C68.1836 13.0039 68.1602 12.9648 68.1367 12.9258C68.1055 12.9023 68.0781 12.8789 68.0547 12.8555C68.0391 12.832 68.0195 12.8086 67.9961 12.7852C67.9805 12.7461 67.957 12.6953 67.9258 12.6328C67.8945 12.5938 67.8633 12.5586 67.832 12.5273C67.8008 12.4961 67.7734 12.457 67.75 12.4102C67.7188 12.3789 67.6797 12.3359 67.6328 12.2812C67.5859 12.2266 67.5352 12.168 67.4805 12.1055C67.4336 12.0352 67.3906 11.9727 67.3516 11.918C67.3125 11.8555 67.2812 11.8047 67.2578 11.7656C67.2422 11.7266 67.2266 11.6953 67.2109 11.6719C67.2031 11.6406 67.1914 11.6094 67.1758 11.5781C67.1367 11.5234 67.0977 11.4766 67.0586 11.4375C67.0195 11.3906 66.9805 11.3398 66.9414 11.2852C66.918 11.3008 66.8945 11.3125 66.8711 11.3203C66.8555 11.3203 66.8398 11.3281 66.8242 11.3438C66.7695 11.4453 66.707 11.5391 66.6367 11.625C66.5742 11.7109 66.5117 11.8047 66.4492 11.9062C66.3945 12 66.3398 12.0977 66.2852 12.1992C66.2305 12.293 66.1758 12.3867 66.1211 12.4805C66.082 12.5352 66.043 12.5898 66.0039 12.6445C65.9727 12.6914 65.9375 12.7461 65.8984 12.8086C65.8594 12.8633 65.8242 12.9219 65.793 12.9844C65.7695 13.0391 65.7383 13.0938 65.6992 13.1484C65.6367 13.2266 65.5859 13.2969 65.5469 13.3594C65.5078 13.4219 65.4688 13.4961 65.4297 13.582C65.4531 13.6289 65.4883 13.6953 65.5352 13.7812C65.5898 13.8594 65.6445 13.9414 65.6992 14.0273C65.7539 14.1055 65.8008 14.1797 65.8398 14.25C65.8867 14.3203 65.9141 14.3672 65.9219 14.3906C65.9844 14.4453 66.0352 14.5078 66.0742 14.5781C66.1133 14.6406 66.1641 14.7031 66.2266 14.7656C66.2578 14.8281 66.293 14.8828 66.332 14.9297C66.3711 14.9766 66.4102 15.0273 66.4492 15.082C66.4883 15.1367 66.5391 15.2188 66.6016 15.3281C66.6641 15.4297 66.7266 15.5352 66.7891 15.6445C66.8516 15.7539 66.9141 15.8555 66.9766 15.9492C67.0391 16.043 67.0898 16.1016 67.1289 16.125C67.207 16.0391 67.2695 15.9453 67.3164 15.8438C67.3711 15.7344 67.4414 15.6367 67.5273 15.5508Z" fill="#2A4D69"/>
<path d="M23 6.10547L30.7942 10.5061H15.2058L23 6.10547Z" fill="#2A4D69"/>
<rect x="16.077" y="10.8124" width="13.8462" height="0.644784" rx="0.322392" fill="#2A4D69"/>
<rect x="16.5615" y="11.7151" width="2.07692" height="0.303049" rx="0.151524" fill="#2A4D69"/>
<rect x="16.5615" y="18.034" width="2.07692" height="0.303049" rx="0.151524" fill="#2A4D69"/>
<rect x="16.8731" y="11.9085" width="1.38462" height="6.12545" fill="#2A4D69"/>
<rect x="20.2308" y="11.7151" width="2.07692" height="0.303049" rx="0.151524" fill="#2A4D69"/>
<rect x="20.2308" y="18.034" width="2.07692" height="0.303049" rx="0.151524" fill="#2A4D69"/>
<rect x="20.5422" y="11.9085" width="1.38462" height="6.12545" fill="#2A4D69"/>
<rect x="23.8307" y="11.7151" width="2.07692" height="0.303049" rx="0.151524" fill="#2A4D69"/>
<rect x="23.8307" y="18.034" width="2.07692" height="0.303049" rx="0.151524" fill="#2A4D69"/>
<rect x="24.1423" y="11.9085" width="1.38462" height="6.12545" fill="#2A4D69"/>
<rect x="23.8307" y="11.7151" width="2.07692" height="0.303049" rx="0.151524" fill="#2A4D69"/>
<rect x="23.8307" y="18.034" width="2.07692" height="0.303049" rx="0.151524" fill="#2A4D69"/>
<rect x="24.1423" y="11.9085" width="1.38462" height="6.12545" fill="#2A4D69"/>
<rect x="27.4308" y="11.7151" width="2.07692" height="0.303049" rx="0.151524" fill="#2A4D69"/>
<rect x="27.4308" y="18.034" width="2.07692" height="0.303049" rx="0.151524" fill="#2A4D69"/>
<rect x="27.7422" y="11.9085" width="1.38462" height="6.12545" fill="#2A4D69"/>
<rect x="16.077" y="18.6788" width="13.8462" height="0.580306" rx="0.290153" fill="#2A4D69"/>
<rect x="15.3846" y="19.517" width="15.2308" height="0.580306" rx="0.290153" fill="#2A4D69"/>
<rect x="14.6923" y="20.4197" width="16.6154" height="0.580306" rx="0.290153" fill="#2A4D69"/>
<rect width="9.21885" height="0.59726" rx="0.29863" transform="matrix(-0.896137 -0.443777 0.495792 -0.868441 30.9246 10.6098)" fill="#2A4D69"/>
<rect width="8.97519" height="0.59726" rx="0.29863" transform="matrix(-0.896137 0.443777 -0.495792 -0.868441 23.2498 6.62421)" fill="#2A4D69"/>
</svg>
