<svg width="80" height="19" viewBox="0 0 80 19" fill="none" xmlns="http://www.w3.org/2000/svg">
<rect width="80" height="19" fill="white"/>
<path d="M25.7695 12.3594C25.832 12.4609 25.8789 12.5586 25.9102 12.6523C25.9414 12.7461 25.957 12.8125 25.957 12.8516C25.957 12.9062 25.9453 12.9531 25.9219 12.9922C25.9062 13.0234 25.8828 13.0586 25.8516 13.0977C25.5391 13.2305 25.2266 13.3555 24.9141 13.4727C24.6094 13.582 24.2969 13.6914 23.9766 13.8008C23.8984 13.8242 23.8203 13.8516 23.7422 13.8828C23.6719 13.9062 23.5938 13.9258 23.5078 13.9414C23.4922 13.957 23.4648 13.9727 23.4258 13.9883C23.3867 14.0039 23.3398 14.0195 23.2852 14.0352C23.2383 14.0508 23.1914 14.0625 23.1445 14.0703C23.0977 14.0859 23.0664 14.0938 23.0508 14.0938C23.0352 14.0547 23.0195 14.0312 23.0039 14.0234C22.9883 14.0156 22.9727 14.0078 22.957 14C22.918 14 22.8906 14.0117 22.875 14.0352C22.8672 14.0664 22.8438 14.0898 22.8047 14.1055C22.7656 14.1055 22.7305 14.1055 22.6992 14.1055C22.668 14.1133 22.6406 14.1094 22.6172 14.0938C22.5547 14.1094 22.4961 14.1367 22.4414 14.1758C22.3945 14.2148 22.3398 14.2422 22.2773 14.2578C22.1602 14.2266 22.0859 14.2109 22.0547 14.2109C22.0312 14.2188 22.0039 14.2266 21.9727 14.2344C21.918 14.1875 21.8906 14.1211 21.8906 14.0352C21.8984 13.9492 21.8789 13.8789 21.832 13.8242C21.832 13.7227 21.8242 13.668 21.8086 13.6602C21.793 13.6445 21.7852 13.6289 21.7852 13.6133C21.7852 13.5586 21.7891 13.5078 21.7969 13.4609C21.8047 13.4141 21.8008 13.3633 21.7852 13.3086C21.8164 13.1758 21.8281 13.0469 21.8203 12.9219C21.8125 12.7969 21.8164 12.6719 21.832 12.5469C21.832 12.5078 21.832 12.4727 21.832 12.4414C21.8398 12.4023 21.8438 12.3633 21.8438 12.3242C21.8438 12.207 21.8516 12.1367 21.8672 12.1133C21.8828 12.082 21.8906 12.0469 21.8906 12.0078C21.8906 11.9531 21.8867 11.9023 21.8789 11.8555C21.8789 11.8008 21.8789 11.7422 21.8789 11.6797C21.8789 11.5703 21.8789 11.4648 21.8789 11.3633C21.8867 11.2539 21.8906 11.1406 21.8906 11.0234C21.8906 10.7266 21.8711 10.4297 21.832 10.1328C21.793 9.83594 21.7734 9.53906 21.7734 9.24219C21.7734 8.88281 21.7539 8.52734 21.7148 8.17578C21.6758 7.82422 21.6562 7.46875 21.6562 7.10938C21.6562 7.04688 21.6562 6.96094 21.6562 6.85156C21.6562 6.73438 21.6562 6.61719 21.6562 6.5C21.6562 6.375 21.6562 6.25781 21.6562 6.14844C21.6641 6.03906 21.6719 5.96094 21.6797 5.91406C21.6797 5.90625 21.7031 5.89453 21.75 5.87891C21.7969 5.86328 21.8281 5.85547 21.8438 5.85547C21.8828 5.85547 21.9141 5.86719 21.9375 5.89062C21.9609 5.90625 21.9883 5.92188 22.0195 5.9375C22.1602 5.92188 22.2422 5.91016 22.2656 5.90234C22.2969 5.88672 22.3203 5.87891 22.3359 5.87891C22.3828 5.87891 22.418 5.89062 22.4414 5.91406C22.4727 5.9375 22.4961 5.94922 22.5117 5.94922C22.6445 5.91797 22.7148 5.91406 22.7227 5.9375C22.7383 5.96094 22.7656 5.97266 22.8047 5.97266C22.9062 5.94141 22.9688 5.92969 22.9922 5.9375C23.0156 5.94531 23.0391 5.94922 23.0625 5.94922C23.1016 5.94922 23.1445 5.9375 23.1914 5.91406C23.2383 5.88281 23.2812 5.85938 23.3203 5.84375C23.4531 5.80469 23.5625 5.76562 23.6484 5.72656C23.7656 5.65625 23.8516 5.60938 23.9062 5.58594C23.9688 5.5625 24.0312 5.53516 24.0938 5.50391C24.2266 5.44922 24.3516 5.39453 24.4688 5.33984C24.5938 5.27734 24.7227 5.21484 24.8555 5.15234C24.8789 5.15234 24.9023 5.15234 24.9258 5.15234C24.957 5.14453 24.9805 5.13281 24.9961 5.11719C25.0195 5.125 25.043 5.12891 25.0664 5.12891C25.0977 5.12891 25.125 5.12891 25.1484 5.12891C25.2266 5.16016 25.2773 5.17969 25.3008 5.1875C25.332 5.23438 25.3594 5.28125 25.3828 5.32812C25.4141 5.36719 25.4492 5.40625 25.4883 5.44531C25.5273 5.51562 25.5586 5.55078 25.582 5.55078C25.582 5.57422 25.5703 5.60156 25.5469 5.63281C25.5234 5.65625 25.5117 5.67969 25.5117 5.70312C25.5742 5.8125 25.625 5.91406 25.6641 6.00781C25.7031 6.10156 25.7227 6.16797 25.7227 6.20703C25.7227 6.26172 25.7148 6.30859 25.6992 6.34766C25.6836 6.37891 25.6641 6.41406 25.6406 6.45312C25.3438 6.59375 25.043 6.73438 24.7383 6.875C24.4414 7.00781 24.1367 7.14062 23.8242 7.27344C23.7461 7.30469 23.6719 7.33984 23.6016 7.37891C23.5312 7.41016 23.4531 7.43359 23.3672 7.44922C23.3516 7.46484 23.3164 7.48047 23.2617 7.49609C23.207 7.50391 23.1641 7.50781 23.1328 7.50781C23.1484 7.64062 23.1562 7.77344 23.1562 7.90625C23.1641 8.03125 23.1719 8.16016 23.1797 8.29297C23.1875 8.40234 23.1992 8.51953 23.2148 8.64453C23.2383 8.76172 23.2578 8.87891 23.2734 8.99609C23.5312 8.88672 23.7852 8.77734 24.0352 8.66797C24.293 8.55859 24.5508 8.44922 24.8086 8.33984C24.8555 8.34766 24.9023 8.35547 24.9492 8.36328C25.0039 8.37109 25.0547 8.38281 25.1016 8.39844C25.1172 8.41406 25.1328 8.43359 25.1484 8.45703C25.1641 8.48047 25.1836 8.5 25.207 8.51562C25.1992 8.55469 25.2227 8.61328 25.2773 8.69141C25.3398 8.76953 25.3711 8.82812 25.3711 8.86719C25.3711 8.92969 25.3789 8.96875 25.3945 8.98438C25.4102 8.99219 25.4258 9.02344 25.4414 9.07812C25.4492 9.15625 25.4492 9.19922 25.4414 9.20703C25.4805 9.24609 25.5117 9.28516 25.5352 9.32422C25.5586 9.36328 25.5703 9.41016 25.5703 9.46484C25.4609 9.59766 25.3516 9.6875 25.2422 9.73438C25.1328 9.77344 25.0234 9.81641 24.9141 9.86328C24.875 9.87891 24.832 9.90234 24.7852 9.93359C24.7461 9.95703 24.707 9.97656 24.668 9.99219C24.6055 10.0156 24.543 10.0391 24.4805 10.0625C24.4258 10.0781 24.3672 10.1016 24.3047 10.1328C24.2031 10.1875 24.0977 10.25 23.9883 10.3203C23.8867 10.3828 23.7812 10.4258 23.6719 10.4492C23.5859 10.4727 23.5273 10.5 23.4961 10.5312C23.4727 10.5547 23.4297 10.5898 23.3672 10.6367V10.9531V11.5391C23.3672 11.6172 23.3672 11.6992 23.3672 11.7852C23.3672 11.8633 23.3633 11.9453 23.3555 12.0312C23.3398 12.1094 23.332 12.1758 23.332 12.2305V12.418C23.3711 12.4023 23.4102 12.3906 23.4492 12.3828C23.4883 12.3672 23.5273 12.3516 23.5664 12.3359C23.5977 12.3281 23.625 12.3242 23.6484 12.3242C23.6797 12.3242 23.7109 12.3164 23.7422 12.3008C23.7812 12.293 23.8125 12.2852 23.8359 12.2773C23.8594 12.2695 23.8867 12.2578 23.918 12.2422C24.0352 12.1797 24.125 12.1406 24.1875 12.125C24.25 12.1016 24.3125 12.0781 24.375 12.0547C24.5078 12.0078 24.6367 11.9609 24.7617 11.9141C24.8867 11.8594 25.0117 11.8086 25.1367 11.7617C25.2148 11.7773 25.2695 11.7656 25.3008 11.7266C25.3398 11.7344 25.3711 11.7422 25.3945 11.75C25.4258 11.7578 25.4609 11.7617 25.5 11.7617C25.5938 11.8477 25.6523 11.9141 25.6758 11.9609C25.6992 12.0078 25.7305 12.0508 25.7695 12.0898C25.8086 12.1602 25.8359 12.1953 25.8516 12.1953C25.8516 12.2109 25.8398 12.2383 25.8164 12.2773C25.793 12.3086 25.7773 12.3359 25.7695 12.3594ZM30.9492 5.53906C31.0117 5.63281 31.0625 5.73047 31.1016 5.83203C31.1484 5.92578 31.1719 5.99219 31.1719 6.03125C31.1719 6.08594 31.1641 6.13281 31.1484 6.17188C31.1328 6.20312 31.1094 6.24219 31.0781 6.28906C30.7812 6.42188 30.4805 6.55859 30.1758 6.69922C29.8789 6.83984 29.5742 6.97266 29.2617 7.09766C29.1836 7.12891 29.1094 7.16016 29.0391 7.19141C28.9688 7.22266 28.8906 7.25391 28.8047 7.28516C28.7891 7.30078 28.7539 7.31641 28.6992 7.33203C28.6523 7.33984 28.6094 7.34375 28.5703 7.34375C28.5859 7.5 28.5938 7.66016 28.5938 7.82422C28.6016 7.98828 28.6094 8.15234 28.6172 8.31641C28.6172 8.36328 28.625 8.41016 28.6406 8.45703C28.6562 8.49609 28.6641 8.53906 28.6641 8.58594C28.6797 8.73438 28.6875 8.87891 28.6875 9.01953C28.6875 9.16016 28.6953 9.30469 28.7109 9.45312C29 9.32812 29.2852 9.20312 29.5664 9.07812C29.8555 8.94531 30.1445 8.81641 30.4336 8.69141C30.4805 8.69922 30.5312 8.70703 30.5859 8.71484C30.6406 8.72266 30.6914 8.73828 30.7383 8.76172C30.7539 8.77734 30.7695 8.79688 30.7852 8.82031C30.8008 8.84375 30.8203 8.86328 30.8438 8.87891C30.8438 8.91797 30.8672 8.97656 30.9141 9.05469C30.9688 9.125 30.9961 9.20312 30.9961 9.28906C30.9961 9.30469 31.0078 9.33203 31.0312 9.37109C31.0547 9.40234 31.0703 9.42578 31.0781 9.44141C31.0781 9.51953 31.0742 9.5625 31.0664 9.57031C31.1211 9.60938 31.1562 9.66016 31.1719 9.72266C31.1953 9.78516 31.207 9.84766 31.207 9.91016C31.0664 10.0664 30.9258 10.1719 30.7852 10.2266C30.6523 10.2812 30.5156 10.3398 30.375 10.4023C30.3359 10.4258 30.293 10.4492 30.2461 10.4727C30.1992 10.4961 30.1523 10.5195 30.1055 10.543C30.043 10.5664 29.9805 10.5898 29.918 10.6133C29.8633 10.6289 29.8047 10.6523 29.7422 10.6836C29.6484 10.7383 29.543 10.8008 29.4258 10.8711C29.3086 10.9414 29.2031 10.9844 29.1094 11C29.0469 11.0156 28.9922 11.0273 28.9453 11.0352C28.9062 11.0352 28.8594 11.0547 28.8047 11.0938C28.7969 11.1875 28.793 11.2812 28.793 11.375C28.8008 11.4609 28.8047 11.5469 28.8047 11.6328C28.8047 11.7266 28.7969 11.8203 28.7812 11.9141C28.7734 12 28.7695 12.0898 28.7695 12.1836C28.7695 12.3398 28.7617 12.4961 28.7461 12.6523C28.7305 12.8008 28.7227 12.9492 28.7227 13.0977C28.7227 13.1914 28.7266 13.2852 28.7344 13.3789C28.7422 13.4648 28.7461 13.5508 28.7461 13.6367C28.7461 13.6836 28.7383 13.7266 28.7227 13.7656C28.707 13.8047 28.6914 13.8438 28.6758 13.8828C28.5664 13.8984 28.5 13.8984 28.4766 13.8828C28.4531 13.8594 28.4258 13.8398 28.3945 13.8242C28.3555 13.8242 28.3281 13.8398 28.3125 13.8711C28.3047 13.9023 28.2812 13.9258 28.2422 13.9414C28.2109 13.9336 28.1758 13.9336 28.1367 13.9414C28.1055 13.9414 28.0781 13.9336 28.0547 13.918C27.9922 13.9414 27.9336 13.9688 27.8789 14C27.832 14.0312 27.7773 14.0547 27.7148 14.0703C27.5977 14.0547 27.5234 14.0469 27.4922 14.0469C27.4688 14.0547 27.4414 14.0625 27.4102 14.0703C27.3555 14.0156 27.3281 13.9492 27.3281 13.8711C27.3359 13.7852 27.3164 13.7109 27.2695 13.6484C27.2695 13.5703 27.2617 13.5234 27.2461 13.5078C27.2305 13.4844 27.2227 13.4648 27.2227 13.4492C27.2227 13.4258 27.2227 13.4023 27.2227 13.3789C27.2305 13.3477 27.2344 13.3164 27.2344 13.2852C27.2344 13.2148 27.2305 13.1602 27.2227 13.1211C27.2305 13.0742 27.2383 13.0039 27.2461 12.9102C27.2539 12.8086 27.2617 12.707 27.2695 12.6055C27.2773 12.4961 27.2812 12.3906 27.2812 12.2891C27.2812 12.1875 27.2812 12.1055 27.2812 12.043C27.2812 12.0039 27.2891 11.9727 27.3047 11.9492C27.3203 11.918 27.3281 11.8828 27.3281 11.8438C27.3281 11.7812 27.3242 11.7266 27.3164 11.6797C27.3164 11.625 27.3164 11.5703 27.3164 11.5156C27.3164 11.4062 27.3164 11.2969 27.3164 11.1875C27.3242 11.0781 27.3281 10.9688 27.3281 10.8594C27.3281 10.5234 27.3086 10.1953 27.2695 9.875C27.2383 9.54688 27.2227 9.21875 27.2227 8.89062C27.2227 8.71094 27.2148 8.51562 27.1992 8.30469C27.1836 8.08594 27.1641 7.88672 27.1406 7.70703C27.1406 7.66797 27.1328 7.63672 27.1172 7.61328C27.1094 7.58203 27.1055 7.55078 27.1055 7.51953C27.0977 7.42578 27.0938 7.33203 27.0938 7.23828C27.0938 7.13672 27.0938 7.03516 27.0938 6.93359C27.0938 6.87109 27.0938 6.78516 27.0938 6.67578C27.0938 6.55859 27.0938 6.44141 27.0938 6.32422C27.0938 6.19922 27.0938 6.08203 27.0938 5.97266C27.1016 5.86328 27.1094 5.78516 27.1172 5.73828C27.1172 5.73047 27.1406 5.71875 27.1875 5.70312C27.2344 5.67969 27.2656 5.66797 27.2812 5.66797C27.3203 5.66797 27.3516 5.67969 27.375 5.70312C27.3984 5.72656 27.4258 5.75 27.457 5.77344C27.4883 5.75 27.5195 5.73828 27.5508 5.73828C27.5898 5.73828 27.6289 5.73828 27.668 5.73828C27.7852 5.71484 27.8555 5.71875 27.8789 5.75C27.9102 5.77344 27.9336 5.78516 27.9492 5.78516C27.9727 5.78516 27.9922 5.77344 28.0078 5.75C28.0234 5.72656 28.043 5.71484 28.0664 5.71484C28.1289 5.71484 28.1641 5.73047 28.1719 5.76172C28.1875 5.79297 28.2109 5.80859 28.2422 5.80859C28.2734 5.80859 28.2969 5.79688 28.3125 5.77344C28.3281 5.75 28.3438 5.73828 28.3594 5.73828C28.3828 5.73828 28.4062 5.74609 28.4297 5.76172C28.4531 5.76953 28.4766 5.77344 28.5 5.77344C28.5391 5.77344 28.582 5.76172 28.6289 5.73828C28.6758 5.70703 28.7188 5.68359 28.7578 5.66797C28.8203 5.65234 28.875 5.63281 28.9219 5.60938C28.9766 5.58594 29.0312 5.56641 29.0859 5.55078C29.2031 5.48047 29.2891 5.4375 29.3438 5.42188C29.4062 5.39844 29.4688 5.37109 29.5312 5.33984C29.6641 5.27734 29.7891 5.21875 29.9062 5.16406C30.0312 5.10156 30.1602 5.04297 30.293 4.98828C30.3633 4.98828 30.4102 4.97266 30.4336 4.94141C30.4883 4.96484 30.5586 4.96875 30.6445 4.95312C30.7383 5.03906 30.7969 5.10547 30.8203 5.15234C30.8516 5.19922 30.8867 5.24219 30.9258 5.28125C30.9727 5.34375 31.0039 5.375 31.0195 5.375C31.0195 5.39844 31.0078 5.42578 30.9844 5.45703C30.9609 5.48828 30.9492 5.51562 30.9492 5.53906ZM36.1289 5.53906C36.1914 5.63281 36.2422 5.73047 36.2812 5.83203C36.3281 5.92578 36.3516 5.99219 36.3516 6.03125C36.3516 6.08594 36.3438 6.13281 36.3281 6.17188C36.3125 6.20312 36.2891 6.24219 36.2578 6.28906C35.9609 6.42188 35.6602 6.55859 35.3555 6.69922C35.0586 6.83984 34.7539 6.97266 34.4414 7.09766C34.3633 7.12891 34.2891 7.16016 34.2188 7.19141C34.1484 7.22266 34.0703 7.25391 33.9844 7.28516C33.9688 7.30078 33.9336 7.31641 33.8789 7.33203C33.832 7.33984 33.7891 7.34375 33.75 7.34375C33.7656 7.5 33.7734 7.66016 33.7734 7.82422C33.7812 7.98828 33.7891 8.15234 33.7969 8.31641C33.7969 8.36328 33.8047 8.41016 33.8203 8.45703C33.8359 8.49609 33.8438 8.53906 33.8438 8.58594C33.8594 8.73438 33.8672 8.87891 33.8672 9.01953C33.8672 9.16016 33.875 9.30469 33.8906 9.45312C34.1797 9.32812 34.4648 9.20312 34.7461 9.07812C35.0352 8.94531 35.3242 8.81641 35.6133 8.69141C35.6602 8.69922 35.7109 8.70703 35.7656 8.71484C35.8203 8.72266 35.8711 8.73828 35.918 8.76172C35.9336 8.77734 35.9492 8.79688 35.9648 8.82031C35.9805 8.84375 36 8.86328 36.0234 8.87891C36.0234 8.91797 36.0469 8.97656 36.0938 9.05469C36.1484 9.125 36.1758 9.20312 36.1758 9.28906C36.1758 9.30469 36.1875 9.33203 36.2109 9.37109C36.2344 9.40234 36.25 9.42578 36.2578 9.44141C36.2578 9.51953 36.2539 9.5625 36.2461 9.57031C36.3008 9.60938 36.3359 9.66016 36.3516 9.72266C36.375 9.78516 36.3867 9.84766 36.3867 9.91016C36.2461 10.0664 36.1055 10.1719 35.9648 10.2266C35.832 10.2812 35.6953 10.3398 35.5547 10.4023C35.5156 10.4258 35.4727 10.4492 35.4258 10.4727C35.3789 10.4961 35.332 10.5195 35.2852 10.543C35.2227 10.5664 35.1602 10.5898 35.0977 10.6133C35.043 10.6289 34.9844 10.6523 34.9219 10.6836C34.8281 10.7383 34.7227 10.8008 34.6055 10.8711C34.4883 10.9414 34.3828 10.9844 34.2891 11C34.2266 11.0156 34.1719 11.0273 34.125 11.0352C34.0859 11.0352 34.0391 11.0547 33.9844 11.0938C33.9766 11.1875 33.9727 11.2812 33.9727 11.375C33.9805 11.4609 33.9844 11.5469 33.9844 11.6328C33.9844 11.7266 33.9766 11.8203 33.9609 11.9141C33.9531 12 33.9492 12.0898 33.9492 12.1836C33.9492 12.3398 33.9414 12.4961 33.9258 12.6523C33.9102 12.8008 33.9023 12.9492 33.9023 13.0977C33.9023 13.1914 33.9062 13.2852 33.9141 13.3789C33.9219 13.4648 33.9258 13.5508 33.9258 13.6367C33.9258 13.6836 33.918 13.7266 33.9023 13.7656C33.8867 13.8047 33.8711 13.8438 33.8555 13.8828C33.7461 13.8984 33.6797 13.8984 33.6562 13.8828C33.6328 13.8594 33.6055 13.8398 33.5742 13.8242C33.5352 13.8242 33.5078 13.8398 33.4922 13.8711C33.4844 13.9023 33.4609 13.9258 33.4219 13.9414C33.3906 13.9336 33.3555 13.9336 33.3164 13.9414C33.2852 13.9414 33.2578 13.9336 33.2344 13.918C33.1719 13.9414 33.1133 13.9688 33.0586 14C33.0117 14.0312 32.957 14.0547 32.8945 14.0703C32.7773 14.0547 32.7031 14.0469 32.6719 14.0469C32.6484 14.0547 32.6211 14.0625 32.5898 14.0703C32.5352 14.0156 32.5078 13.9492 32.5078 13.8711C32.5156 13.7852 32.4961 13.7109 32.4492 13.6484C32.4492 13.5703 32.4414 13.5234 32.4258 13.5078C32.4102 13.4844 32.4023 13.4648 32.4023 13.4492C32.4023 13.4258 32.4023 13.4023 32.4023 13.3789C32.4102 13.3477 32.4141 13.3164 32.4141 13.2852C32.4141 13.2148 32.4102 13.1602 32.4023 13.1211C32.4102 13.0742 32.418 13.0039 32.4258 12.9102C32.4336 12.8086 32.4414 12.707 32.4492 12.6055C32.457 12.4961 32.4609 12.3906 32.4609 12.2891C32.4609 12.1875 32.4609 12.1055 32.4609 12.043C32.4609 12.0039 32.4688 11.9727 32.4844 11.9492C32.5 11.918 32.5078 11.8828 32.5078 11.8438C32.5078 11.7812 32.5039 11.7266 32.4961 11.6797C32.4961 11.625 32.4961 11.5703 32.4961 11.5156C32.4961 11.4062 32.4961 11.2969 32.4961 11.1875C32.5039 11.0781 32.5078 10.9688 32.5078 10.8594C32.5078 10.5234 32.4883 10.1953 32.4492 9.875C32.418 9.54688 32.4023 9.21875 32.4023 8.89062C32.4023 8.71094 32.3945 8.51562 32.3789 8.30469C32.3633 8.08594 32.3438 7.88672 32.3203 7.70703C32.3203 7.66797 32.3125 7.63672 32.2969 7.61328C32.2891 7.58203 32.2852 7.55078 32.2852 7.51953C32.2773 7.42578 32.2734 7.33203 32.2734 7.23828C32.2734 7.13672 32.2734 7.03516 32.2734 6.93359C32.2734 6.87109 32.2734 6.78516 32.2734 6.67578C32.2734 6.55859 32.2734 6.44141 32.2734 6.32422C32.2734 6.19922 32.2734 6.08203 32.2734 5.97266C32.2812 5.86328 32.2891 5.78516 32.2969 5.73828C32.2969 5.73047 32.3203 5.71875 32.3672 5.70312C32.4141 5.67969 32.4453 5.66797 32.4609 5.66797C32.5 5.66797 32.5312 5.67969 32.5547 5.70312C32.5781 5.72656 32.6055 5.75 32.6367 5.77344C32.668 5.75 32.6992 5.73828 32.7305 5.73828C32.7695 5.73828 32.8086 5.73828 32.8477 5.73828C32.9648 5.71484 33.0352 5.71875 33.0586 5.75C33.0898 5.77344 33.1133 5.78516 33.1289 5.78516C33.1523 5.78516 33.1719 5.77344 33.1875 5.75C33.2031 5.72656 33.2227 5.71484 33.2461 5.71484C33.3086 5.71484 33.3438 5.73047 33.3516 5.76172C33.3672 5.79297 33.3906 5.80859 33.4219 5.80859C33.4531 5.80859 33.4766 5.79688 33.4922 5.77344C33.5078 5.75 33.5234 5.73828 33.5391 5.73828C33.5625 5.73828 33.5859 5.74609 33.6094 5.76172C33.6328 5.76953 33.6562 5.77344 33.6797 5.77344C33.7188 5.77344 33.7617 5.76172 33.8086 5.73828C33.8555 5.70703 33.8984 5.68359 33.9375 5.66797C34 5.65234 34.0547 5.63281 34.1016 5.60938C34.1562 5.58594 34.2109 5.56641 34.2656 5.55078C34.3828 5.48047 34.4688 5.4375 34.5234 5.42188C34.5859 5.39844 34.6484 5.37109 34.7109 5.33984C34.8438 5.27734 34.9688 5.21875 35.0859 5.16406C35.2109 5.10156 35.3398 5.04297 35.4727 4.98828C35.543 4.98828 35.5898 4.97266 35.6133 4.94141C35.668 4.96484 35.7383 4.96875 35.8242 4.95312C35.918 5.03906 35.9766 5.10547 36 5.15234C36.0312 5.19922 36.0664 5.24219 36.1055 5.28125C36.1523 5.34375 36.1836 5.375 36.1992 5.375C36.1992 5.39844 36.1875 5.42578 36.1641 5.45703C36.1406 5.48828 36.1289 5.51562 36.1289 5.53906ZM41.0273 12.6523C41.0117 12.6992 41.0039 12.7422 41.0039 12.7812C41.0039 12.8281 41.0078 12.875 41.0156 12.9219C41.0312 12.9688 41.0391 13.0156 41.0391 13.0625C41.0234 13.2031 41.0117 13.2891 41.0039 13.3203C40.957 13.3594 40.8594 13.4062 40.7109 13.4609C40.5703 13.5078 40.3984 13.5586 40.1953 13.6133C40 13.6602 39.7852 13.7109 39.5508 13.7656C39.3242 13.8125 39.1055 13.8594 38.8945 13.9062C38.6836 13.9531 38.4883 13.9922 38.3086 14.0234C38.1367 14.0625 38.0078 14.0898 37.9219 14.1055C37.8828 14.1133 37.8438 14.1211 37.8047 14.1289C37.7734 14.1445 37.7383 14.1602 37.6992 14.1758C37.6602 14.1836 37.6211 14.1836 37.582 14.1758C37.543 14.1758 37.5039 14.1836 37.4648 14.1992C37.4414 14.1992 37.418 14.1875 37.3945 14.1641C37.3789 14.1406 37.3633 14.1211 37.3477 14.1055C37.3477 14.0586 37.3398 14.0234 37.3242 14C37.3086 13.9766 37.2891 13.957 37.2656 13.9414C37.25 13.9258 37.2344 13.9102 37.2188 13.8945C37.2031 13.8711 37.1953 13.8359 37.1953 13.7891C37.1797 13.7266 37.1562 13.6797 37.125 13.6484C37.1016 13.6094 37.0898 13.5742 37.0898 13.543C37.0586 13.4414 37.043 13.3516 37.043 13.2734C37.043 13.2344 37.0469 13.2031 37.0547 13.1797C37.0625 13.1562 37.0742 13.1328 37.0898 13.1094C37.1367 13.0938 37.1719 13.0742 37.1953 13.0508C37.2188 13.0273 37.25 13.0078 37.2891 12.9922C37.3359 12.9688 37.4023 12.9492 37.4883 12.9336C37.5742 12.9102 37.668 12.8867 37.7695 12.8633C37.8711 12.8398 37.9688 12.8164 38.0625 12.793C38.1562 12.7695 38.2344 12.7461 38.2969 12.7227C38.3203 12.7148 38.3438 12.7109 38.3672 12.7109C38.3906 12.7109 38.4102 12.7031 38.4258 12.6875C38.4102 12.5625 38.3984 12.4375 38.3906 12.3125C38.3906 12.1875 38.3828 12.0664 38.3672 11.9492C38.3672 11.8945 38.3633 11.8398 38.3555 11.7852C38.3477 11.7305 38.3438 11.6797 38.3438 11.6328L38.3555 11.3867C38.3555 11.0898 38.3438 10.793 38.3203 10.4961C38.2969 10.1992 38.2852 9.90234 38.2852 9.60547V9.20703C38.2852 9.14453 38.2812 9.08594 38.2734 9.03125C38.2734 8.97656 38.2734 8.91797 38.2734 8.85547C38.2734 8.70703 38.2734 8.56641 38.2734 8.43359C38.2812 8.29297 38.2852 8.14844 38.2852 8V6.92188C38.1133 6.88281 37.9531 6.88672 37.8047 6.93359C37.6562 6.97266 37.5039 7 37.3477 7.01562C37.293 6.96094 37.2617 6.90234 37.2539 6.83984C37.1914 6.75391 37.1484 6.69922 37.125 6.67578C37.1016 6.65234 37.0742 6.58594 37.043 6.47656C36.9883 6.36719 36.9414 6.30078 36.9023 6.27734C36.8711 6.24609 36.8555 6.19922 36.8555 6.13672C36.8555 6.09766 36.8633 6.07031 36.8789 6.05469C36.9023 6.03906 36.9219 6.01172 36.9375 5.97266C37.0078 5.94141 37.0469 5.92188 37.0547 5.91406C37.0703 5.89844 37.0859 5.88672 37.1016 5.87891C37.1797 5.82422 37.2695 5.78516 37.3711 5.76172C37.4727 5.73828 37.5703 5.71094 37.6641 5.67969C37.7422 5.65625 37.8164 5.62891 37.8867 5.59766C37.957 5.56641 38.0352 5.53906 38.1211 5.51562C38.2227 5.48438 38.3242 5.45312 38.4258 5.42188C38.5273 5.39062 38.625 5.36328 38.7188 5.33984C38.7812 5.32422 38.8398 5.32031 38.8945 5.32812C38.957 5.32812 39.0195 5.30859 39.082 5.26953C39.1836 5.28516 39.2891 5.28516 39.3984 5.26953C39.5156 5.24609 39.6406 5.21875 39.7734 5.1875C39.9062 5.15625 40.0352 5.12891 40.1602 5.10547C40.2852 5.08203 40.3789 5.0625 40.4414 5.04688C40.4805 5.0625 40.5078 5.08203 40.5234 5.10547C40.5391 5.12891 40.5625 5.14453 40.5938 5.15234C40.6016 5.17578 40.6094 5.20703 40.6172 5.24609C40.625 5.27734 40.6406 5.30078 40.6641 5.31641C40.6641 5.40234 40.6836 5.46484 40.7227 5.50391C40.7148 5.58203 40.7266 5.67188 40.7578 5.77344C40.7969 5.86719 40.8164 5.95703 40.8164 6.04297C40.7773 6.16016 40.7109 6.23438 40.6172 6.26562C40.5312 6.29688 40.4336 6.32422 40.3242 6.34766C40.2227 6.37109 40.1211 6.39453 40.0195 6.41797C39.918 6.43359 39.8359 6.45312 39.7734 6.47656C39.7734 6.58594 39.7734 6.69922 39.7734 6.81641C39.7812 6.93359 39.7852 7.05078 39.7852 7.16797C39.7852 7.27734 39.7812 7.38672 39.7734 7.49609C39.7734 7.60547 39.7734 7.71484 39.7734 7.82422C39.7734 7.98828 39.7695 8.15625 39.7617 8.32812C39.7617 8.5 39.7617 8.67188 39.7617 8.84375C39.7617 9.08594 39.7656 9.32812 39.7734 9.57031C39.7812 9.8125 39.793 10.0547 39.8086 10.2969C39.8164 10.3359 39.8203 10.3945 39.8203 10.4727C39.8203 10.7852 39.8242 11.0938 39.832 11.3984C39.8477 11.6953 39.8711 12.0039 39.9023 12.3242C40.0039 12.332 40.082 12.3164 40.1367 12.2773C40.1758 12.2773 40.2109 12.2695 40.2422 12.2539C40.2812 12.2383 40.3164 12.2227 40.3477 12.207C40.3945 12.1992 40.457 12.1875 40.5352 12.1719C40.6211 12.1484 40.6758 12.1367 40.6992 12.1367C40.7695 12.1445 40.8125 12.1445 40.8281 12.1367C40.8516 12.1836 40.8867 12.2188 40.9336 12.2422C40.9492 12.3125 40.9609 12.3828 40.9688 12.4531C40.9844 12.5156 41.0039 12.582 41.0273 12.6523ZM44.0859 10.8008C44.1016 10.8398 44.1602 10.9258 44.2617 11.0586C44.3633 11.1836 44.4766 11.3242 44.6016 11.4805C44.7344 11.6289 44.8633 11.7734 44.9883 11.9141C45.1133 12.0547 45.1992 12.1562 45.2461 12.2188C45.3945 12.4375 45.5469 12.6523 45.7031 12.8633C45.8594 13.0742 46.0078 13.293 46.1484 13.5195C46.1875 13.5586 46.2188 13.6094 46.2422 13.6719C46.2656 13.7266 46.2773 13.7852 46.2773 13.8477C46.2773 13.918 46.2578 13.957 46.2188 13.9648C46.1875 13.9648 46.1523 13.9727 46.1133 13.9883C46.0352 14.043 45.9648 14.0742 45.9023 14.082C45.8398 14.0898 45.7891 14.0938 45.75 14.0938C45.6641 14.0938 45.5703 14.0898 45.4688 14.082C45.3672 14.082 45.2812 14.0898 45.2109 14.1055C45.1875 14.1133 45.1602 14.125 45.1289 14.1406C45.0977 14.1641 45.0742 14.1758 45.0586 14.1758C44.9961 14.1758 44.9492 14.1641 44.918 14.1406C44.8945 14.125 44.8594 14.1094 44.8125 14.0938C44.75 14.0234 44.6914 13.9492 44.6367 13.8711C44.5898 13.793 44.5391 13.7148 44.4844 13.6367C44.4375 13.582 44.3867 13.5352 44.332 13.4961C44.2773 13.4492 44.2266 13.3945 44.1797 13.332C44.0547 13.1523 43.9258 12.9805 43.793 12.8164C43.668 12.6523 43.5391 12.4883 43.4062 12.3242C43.3438 12.2383 43.2734 12.1562 43.1953 12.0781C43.125 12 43.0586 11.9219 42.9961 11.8438C42.9336 11.7578 42.875 11.668 42.8203 11.5742C42.7656 11.4805 42.707 11.3906 42.6445 11.3047C42.5977 11.2266 42.5312 11.1328 42.4453 11.0234C42.3594 10.9062 42.2695 10.7891 42.1758 10.6719C42.082 10.5547 41.9844 10.4453 41.8828 10.3438C41.7891 10.2344 41.707 10.1523 41.6367 10.0977C41.6367 10.043 41.6211 10.0039 41.5898 9.98047C41.5586 9.95703 41.5234 9.92969 41.4844 9.89844C41.4688 9.85938 41.4492 9.82422 41.4258 9.79297C41.4023 9.75391 41.3906 9.71094 41.3906 9.66406C41.3906 9.63281 41.3945 9.60547 41.4023 9.58203C41.4102 9.55859 41.418 9.53516 41.4258 9.51172C41.4414 9.48047 41.4492 9.45312 41.4492 9.42969C41.457 9.39844 41.4688 9.36719 41.4844 9.33594C41.5234 9.23438 41.5781 9.14453 41.6484 9.06641C41.7266 8.98828 41.7852 8.89844 41.8242 8.79688C41.832 8.76562 41.8359 8.73828 41.8359 8.71484C41.8359 8.68359 41.8438 8.65234 41.8594 8.62109C41.8828 8.57422 41.918 8.52734 41.9648 8.48047C42.0117 8.43359 42.0547 8.38281 42.0938 8.32812C42.1328 8.25781 42.1719 8.1875 42.2109 8.11719C42.25 8.04688 42.2891 7.97656 42.3281 7.90625C42.4375 7.72656 42.5586 7.55469 42.6914 7.39062C42.8242 7.21875 42.9492 7.05078 43.0664 6.88672C43.1758 6.73047 43.2773 6.57812 43.3711 6.42969C43.4648 6.27344 43.5664 6.11719 43.6758 5.96094C43.7305 5.88281 43.793 5.79688 43.8633 5.70312C43.9336 5.60156 44.0039 5.50391 44.0742 5.41016C44.1523 5.31641 44.2305 5.23047 44.3086 5.15234C44.3867 5.06641 44.4648 5.00391 44.543 4.96484C44.6758 4.94922 44.7617 4.97266 44.8008 5.03516C44.8398 5.08984 44.8945 5.11719 44.9648 5.11719C45.0742 5.14062 45.1484 5.17578 45.1875 5.22266C45.2266 5.26953 45.2656 5.3125 45.3047 5.35156C45.4062 5.35156 45.4922 5.37109 45.5625 5.41016C45.6328 5.44922 45.7031 5.50781 45.7734 5.58594C45.7422 5.67188 45.6992 5.75 45.6445 5.82031C45.5977 5.89062 45.5547 5.96484 45.5156 6.04297C45.4531 6.06641 45.4062 6.10547 45.375 6.16016C45.3516 6.21484 45.3125 6.26172 45.2578 6.30078C45.1719 6.43359 45.0859 6.56641 45 6.69922C44.9141 6.82422 44.8281 6.94531 44.7422 7.0625C44.7031 7.10938 44.6562 7.14844 44.6016 7.17969C44.5547 7.20312 44.5156 7.24219 44.4844 7.29688C44.4688 7.32031 44.457 7.34766 44.4492 7.37891C44.4414 7.40234 44.4297 7.42578 44.4141 7.44922C44.3203 7.59766 44.2148 7.74219 44.0977 7.88281C43.9805 8.02344 43.8789 8.17188 43.793 8.32812C43.7539 8.38281 43.7227 8.44141 43.6992 8.50391C43.6758 8.55859 43.6484 8.61328 43.6172 8.66797C43.5859 8.71484 43.5391 8.78125 43.4766 8.86719C43.4219 8.95312 43.3633 9.04297 43.3008 9.13672C43.2461 9.22266 43.1953 9.30859 43.1484 9.39453C43.1094 9.47266 43.0898 9.53906 43.0898 9.59375C43.0977 9.63281 43.1484 9.71094 43.2422 9.82812C43.3359 9.94531 43.4375 10.0703 43.5469 10.2031C43.6641 10.3359 43.7734 10.4609 43.875 10.5781C43.9844 10.6953 44.0547 10.7695 44.0859 10.8008ZM50.4375 12.6523C50.4219 12.6992 50.4141 12.7422 50.4141 12.7812C50.4141 12.8281 50.418 12.875 50.4258 12.9219C50.4414 12.9688 50.4492 13.0156 50.4492 13.0625C50.4336 13.2031 50.4219 13.2891 50.4141 13.3203C50.3672 13.3594 50.2695 13.4062 50.1211 13.4609C49.9805 13.5078 49.8086 13.5586 49.6055 13.6133C49.4102 13.6602 49.1953 13.7109 48.9609 13.7656C48.7344 13.8125 48.5156 13.8594 48.3047 13.9062C48.0938 13.9531 47.8984 13.9922 47.7188 14.0234C47.5469 14.0625 47.418 14.0898 47.332 14.1055C47.293 14.1133 47.2539 14.1211 47.2148 14.1289C47.1836 14.1445 47.1484 14.1602 47.1094 14.1758C47.0703 14.1836 47.0312 14.1836 46.9922 14.1758C46.9531 14.1758 46.9141 14.1836 46.875 14.1992C46.8516 14.1992 46.8281 14.1875 46.8047 14.1641C46.7891 14.1406 46.7734 14.1211 46.7578 14.1055C46.7578 14.0586 46.75 14.0234 46.7344 14C46.7188 13.9766 46.6992 13.957 46.6758 13.9414C46.6602 13.9258 46.6445 13.9102 46.6289 13.8945C46.6133 13.8711 46.6055 13.8359 46.6055 13.7891C46.5898 13.7266 46.5664 13.6797 46.5352 13.6484C46.5117 13.6094 46.5 13.5742 46.5 13.543C46.4688 13.4414 46.4531 13.3516 46.4531 13.2734C46.4531 13.2344 46.457 13.2031 46.4648 13.1797C46.4727 13.1562 46.4844 13.1328 46.5 13.1094C46.5469 13.0938 46.582 13.0742 46.6055 13.0508C46.6289 13.0273 46.6602 13.0078 46.6992 12.9922C46.7461 12.9688 46.8125 12.9492 46.8984 12.9336C46.9844 12.9102 47.0781 12.8867 47.1797 12.8633C47.2812 12.8398 47.3789 12.8164 47.4727 12.793C47.5664 12.7695 47.6445 12.7461 47.707 12.7227C47.7305 12.7148 47.7539 12.7109 47.7773 12.7109C47.8008 12.7109 47.8203 12.7031 47.8359 12.6875C47.8203 12.5625 47.8086 12.4375 47.8008 12.3125C47.8008 12.1875 47.793 12.0664 47.7773 11.9492C47.7773 11.8945 47.7734 11.8398 47.7656 11.7852C47.7578 11.7305 47.7539 11.6797 47.7539 11.6328L47.7656 11.3867C47.7656 11.0898 47.7539 10.793 47.7305 10.4961C47.707 10.1992 47.6953 9.90234 47.6953 9.60547V9.20703C47.6953 9.14453 47.6914 9.08594 47.6836 9.03125C47.6836 8.97656 47.6836 8.91797 47.6836 8.85547C47.6836 8.70703 47.6836 8.56641 47.6836 8.43359C47.6914 8.29297 47.6953 8.14844 47.6953 8V6.92188C47.5234 6.88281 47.3633 6.88672 47.2148 6.93359C47.0664 6.97266 46.9141 7 46.7578 7.01562C46.7031 6.96094 46.6719 6.90234 46.6641 6.83984C46.6016 6.75391 46.5586 6.69922 46.5352 6.67578C46.5117 6.65234 46.4844 6.58594 46.4531 6.47656C46.3984 6.36719 46.3516 6.30078 46.3125 6.27734C46.2812 6.24609 46.2656 6.19922 46.2656 6.13672C46.2656 6.09766 46.2734 6.07031 46.2891 6.05469C46.3125 6.03906 46.332 6.01172 46.3477 5.97266C46.418 5.94141 46.457 5.92188 46.4648 5.91406C46.4805 5.89844 46.4961 5.88672 46.5117 5.87891C46.5898 5.82422 46.6797 5.78516 46.7812 5.76172C46.8828 5.73828 46.9805 5.71094 47.0742 5.67969C47.1523 5.65625 47.2266 5.62891 47.2969 5.59766C47.3672 5.56641 47.4453 5.53906 47.5312 5.51562C47.6328 5.48438 47.7344 5.45312 47.8359 5.42188C47.9375 5.39062 48.0352 5.36328 48.1289 5.33984C48.1914 5.32422 48.25 5.32031 48.3047 5.32812C48.3672 5.32812 48.4297 5.30859 48.4922 5.26953C48.5938 5.28516 48.6992 5.28516 48.8086 5.26953C48.9258 5.24609 49.0508 5.21875 49.1836 5.1875C49.3164 5.15625 49.4453 5.12891 49.5703 5.10547C49.6953 5.08203 49.7891 5.0625 49.8516 5.04688C49.8906 5.0625 49.918 5.08203 49.9336 5.10547C49.9492 5.12891 49.9727 5.14453 50.0039 5.15234C50.0117 5.17578 50.0195 5.20703 50.0273 5.24609C50.0352 5.27734 50.0508 5.30078 50.0742 5.31641C50.0742 5.40234 50.0938 5.46484 50.1328 5.50391C50.125 5.58203 50.1367 5.67188 50.168 5.77344C50.207 5.86719 50.2266 5.95703 50.2266 6.04297C50.1875 6.16016 50.1211 6.23438 50.0273 6.26562C49.9414 6.29688 49.8438 6.32422 49.7344 6.34766C49.6328 6.37109 49.5312 6.39453 49.4297 6.41797C49.3281 6.43359 49.2461 6.45312 49.1836 6.47656C49.1836 6.58594 49.1836 6.69922 49.1836 6.81641C49.1914 6.93359 49.1953 7.05078 49.1953 7.16797C49.1953 7.27734 49.1914 7.38672 49.1836 7.49609C49.1836 7.60547 49.1836 7.71484 49.1836 7.82422C49.1836 7.98828 49.1797 8.15625 49.1719 8.32812C49.1719 8.5 49.1719 8.67188 49.1719 8.84375C49.1719 9.08594 49.1758 9.32812 49.1836 9.57031C49.1914 9.8125 49.2031 10.0547 49.2188 10.2969C49.2266 10.3359 49.2305 10.3945 49.2305 10.4727C49.2305 10.7852 49.2344 11.0938 49.2422 11.3984C49.2578 11.6953 49.2812 12.0039 49.3125 12.3242C49.4141 12.332 49.4922 12.3164 49.5469 12.2773C49.5859 12.2773 49.6211 12.2695 49.6523 12.2539C49.6914 12.2383 49.7266 12.2227 49.7578 12.207C49.8047 12.1992 49.8672 12.1875 49.9453 12.1719C50.0312 12.1484 50.0859 12.1367 50.1094 12.1367C50.1797 12.1445 50.2227 12.1445 50.2383 12.1367C50.2617 12.1836 50.2969 12.2188 50.3438 12.2422C50.3594 12.3125 50.3711 12.3828 50.3789 12.4531C50.3945 12.5156 50.4141 12.582 50.4375 12.6523ZM57.2109 9.34766C57.1953 9.37891 57.1797 9.41016 57.1641 9.44141C57.1484 9.46484 57.1367 9.49219 57.1289 9.52344C57.1602 9.55469 57.1875 9.58984 57.2109 9.62891C57.2422 9.66016 57.2578 9.69531 57.2578 9.73438C57.2578 9.76562 57.25 9.79688 57.2344 9.82812C57.2266 9.85156 57.2266 9.875 57.2344 9.89844C57.2031 9.95312 57.168 10.0039 57.1289 10.0508C57.0977 10.0977 57.0742 10.1484 57.0586 10.2031C57.0273 10.2344 57 10.2656 56.9766 10.2969C56.9609 10.3281 56.9453 10.3594 56.9297 10.3906C56.8906 10.4062 56.8633 10.4336 56.8477 10.4727C56.8398 10.5039 56.8203 10.5312 56.7891 10.5547C56.7812 10.5859 56.7422 10.6602 56.6719 10.7773C56.6016 10.8945 56.5234 11.0195 56.4375 11.1523C56.3516 11.2852 56.2695 11.4141 56.1914 11.5391C56.1133 11.6641 56.0586 11.7461 56.0273 11.7852C56.0117 11.8242 55.9922 11.8555 55.9688 11.8789C55.9531 11.9023 55.9336 11.9297 55.9102 11.9609C55.8945 11.9844 55.8828 12.0117 55.875 12.043C55.8672 12.0664 55.8555 12.0859 55.8398 12.1016C55.8242 12.1328 55.8047 12.1602 55.7812 12.1836C55.7656 12.207 55.75 12.2383 55.7344 12.2773C55.6562 12.3789 55.5781 12.5 55.5 12.6406C55.4219 12.7812 55.3477 12.9062 55.2773 13.0156C55.2383 13.0781 55.1992 13.1406 55.1602 13.2031C55.1289 13.2656 55.0938 13.3281 55.0547 13.3906C55.0156 13.4531 54.9766 13.5117 54.9375 13.5664C54.8984 13.6211 54.8594 13.6797 54.8203 13.7422C54.7578 13.7891 54.7031 13.8477 54.6562 13.918C54.6094 13.9805 54.5547 14.0352 54.4922 14.082C54.3906 14.082 54.3281 14.0352 54.3047 13.9414C54.2031 13.918 54.1523 13.918 54.1523 13.9414C54.1523 13.9648 54.1523 13.9844 54.1523 14C54.1211 14.0156 54.0977 14.0391 54.082 14.0703C54.0742 14.1016 54.0547 14.125 54.0234 14.1406C53.9609 14.125 53.9062 14.0977 53.8594 14.0586C53.8203 14.0273 53.7617 14.0156 53.6836 14.0234C53.6523 13.9766 53.6172 13.9375 53.5781 13.9062C53.5391 13.8672 53.5039 13.8281 53.4727 13.7891C53.457 13.7422 53.4336 13.7031 53.4023 13.6719C53.3789 13.6406 53.3555 13.6094 53.332 13.5781C53.3086 13.5391 53.2852 13.5039 53.2617 13.4727C53.2383 13.4414 53.2148 13.4102 53.1914 13.3789C53.1367 13.3086 53.082 13.2422 53.0273 13.1797C52.9805 13.1094 52.9375 13.0391 52.8984 12.9688C52.8359 12.875 52.7734 12.7812 52.7109 12.6875C52.6562 12.5859 52.5977 12.4883 52.5352 12.3945C52.5039 12.3477 52.4727 12.3008 52.4414 12.2539C52.4102 12.207 52.3828 12.1602 52.3594 12.1133C52.3438 12.0742 52.3203 12.0273 52.2891 11.9727C52.2656 11.918 52.2344 11.8828 52.1953 11.8672C52.1797 11.8047 52.1523 11.7578 52.1133 11.7266C52.0742 11.6953 52.0352 11.6562 51.9961 11.6094C51.9414 11.5469 51.8906 11.4805 51.8438 11.4102C51.7969 11.332 51.75 11.2539 51.7031 11.1758C51.5469 10.957 51.3984 10.7422 51.2578 10.5312C51.125 10.3203 50.9922 10.1016 50.8594 9.875C50.8984 9.75 50.918 9.65625 50.918 9.59375C50.918 9.53125 50.9375 9.48047 50.9766 9.44141C50.9766 9.41016 50.9844 9.36328 51 9.30078C51.1016 9.12891 51.1992 8.97266 51.293 8.83203C51.3789 8.69922 51.4375 8.58984 51.4688 8.50391C51.5078 8.41797 51.5469 8.32812 51.5859 8.23438C51.625 8.21094 51.6562 8.18359 51.6797 8.15234C51.7031 8.11328 51.7344 8.07812 51.7734 8.04688C51.7891 7.96094 51.8242 7.89062 51.8789 7.83594C51.9336 7.77344 51.9688 7.69922 51.9844 7.61328C52.0547 7.55859 52.0938 7.49609 52.1016 7.42578C52.2031 7.35547 52.2656 7.26172 52.2891 7.14453C52.3516 7.08203 52.4023 7.01172 52.4414 6.93359C52.4883 6.85547 52.5312 6.77344 52.5703 6.6875C52.6641 6.60938 52.7383 6.50781 52.793 6.38281C52.8398 6.35156 52.875 6.30859 52.8984 6.25391C52.9219 6.19922 52.9531 6.15234 52.9922 6.11328C53.0547 6.01172 53.1016 5.92969 53.1328 5.86719C53.1719 5.79688 53.2109 5.72656 53.25 5.65625C53.3047 5.65625 53.3398 5.63672 53.3555 5.59766C53.3711 5.55859 53.4023 5.54297 53.4492 5.55078C53.4492 5.48047 53.4688 5.41797 53.5078 5.36328C53.5234 5.35547 53.5469 5.34766 53.5781 5.33984C53.6094 5.32422 53.625 5.30859 53.625 5.29297C53.6094 5.19922 53.6133 5.14453 53.6367 5.12891C53.6602 5.11328 53.6797 5.09766 53.6953 5.08203C53.7812 5.09766 53.8398 5.10938 53.8711 5.11719C53.9023 5.125 53.9531 5.15234 54.0234 5.19922C54.1016 5.19922 54.1562 5.21484 54.1875 5.24609C54.2188 5.27734 54.2539 5.30078 54.293 5.31641C54.3242 5.34766 54.3477 5.37891 54.3633 5.41016C54.3867 5.44141 54.418 5.46484 54.457 5.48047C54.5195 5.56641 54.5859 5.66016 54.6562 5.76172C54.7266 5.86328 54.793 5.95703 54.8555 6.04297C54.9414 6.16016 55.0273 6.27344 55.1133 6.38281C55.207 6.48438 55.293 6.59766 55.3711 6.72266C55.3945 6.76172 55.4375 6.83203 55.5 6.93359C55.5625 7.02734 55.6328 7.12891 55.7109 7.23828C55.7891 7.34766 55.8594 7.44922 55.9219 7.54297C55.9844 7.62891 56.0273 7.67969 56.0508 7.69531C56.0742 7.73438 56.125 7.80859 56.2031 7.91797C56.2812 8.02734 56.3633 8.14453 56.4492 8.26953C56.543 8.38672 56.6328 8.5 56.7188 8.60938C56.8047 8.71875 56.8633 8.78906 56.8945 8.82031C56.9805 8.9375 57.043 9.03516 57.082 9.11328C57.1289 9.18359 57.1719 9.26172 57.2109 9.34766ZM54.5273 11.5508C54.6133 11.4336 54.6797 11.3281 54.7266 11.2344C54.7734 11.1406 54.8203 11.0469 54.8672 10.9531C54.9453 10.8594 54.9922 10.793 55.0078 10.7539C55.0234 10.7148 55.043 10.6758 55.0664 10.6367C55.1289 10.543 55.1914 10.4492 55.2539 10.3555C55.3242 10.2617 55.3789 10.1602 55.418 10.0508C55.4648 10.0195 55.5 9.98047 55.5234 9.93359C55.5469 9.88672 55.582 9.84375 55.6289 9.80469C55.582 9.64062 55.5273 9.51562 55.4648 9.42969C55.4023 9.33594 55.3398 9.24609 55.2773 9.16016C55.2539 9.12109 55.2305 9.08203 55.207 9.04297C55.1836 9.00391 55.1602 8.96484 55.1367 8.92578C55.1055 8.90234 55.0781 8.87891 55.0547 8.85547C55.0391 8.83203 55.0195 8.80859 54.9961 8.78516C54.9805 8.74609 54.957 8.69531 54.9258 8.63281C54.8945 8.59375 54.8633 8.55859 54.832 8.52734C54.8008 8.49609 54.7734 8.45703 54.75 8.41016C54.7188 8.37891 54.6797 8.33594 54.6328 8.28125C54.5859 8.22656 54.5352 8.16797 54.4805 8.10547C54.4336 8.03516 54.3906 7.97266 54.3516 7.91797C54.3125 7.85547 54.2812 7.80469 54.2578 7.76562C54.2422 7.72656 54.2266 7.69531 54.2109 7.67188C54.2031 7.64062 54.1914 7.60938 54.1758 7.57812C54.1367 7.52344 54.0977 7.47656 54.0586 7.4375C54.0195 7.39062 53.9805 7.33984 53.9414 7.28516C53.918 7.30078 53.8945 7.3125 53.8711 7.32031C53.8555 7.32031 53.8398 7.32812 53.8242 7.34375C53.7695 7.44531 53.707 7.53906 53.6367 7.625C53.5742 7.71094 53.5117 7.80469 53.4492 7.90625C53.3945 8 53.3398 8.09766 53.2852 8.19922C53.2305 8.29297 53.1758 8.38672 53.1211 8.48047C53.082 8.53516 53.043 8.58984 53.0039 8.64453C52.9727 8.69141 52.9375 8.74609 52.8984 8.80859C52.8594 8.86328 52.8242 8.92188 52.793 8.98438C52.7695 9.03906 52.7383 9.09375 52.6992 9.14844C52.6367 9.22656 52.5859 9.29688 52.5469 9.35938C52.5078 9.42188 52.4688 9.49609 52.4297 9.58203C52.4531 9.62891 52.4883 9.69531 52.5352 9.78125C52.5898 9.85938 52.6445 9.94141 52.6992 10.0273C52.7539 10.1055 52.8008 10.1797 52.8398 10.25C52.8867 10.3203 52.9141 10.3672 52.9219 10.3906C52.9844 10.4453 53.0352 10.5078 53.0742 10.5781C53.1133 10.6406 53.1641 10.7031 53.2266 10.7656C53.2578 10.8281 53.293 10.8828 53.332 10.9297C53.3711 10.9766 53.4102 11.0273 53.4492 11.082C53.4883 11.1367 53.5391 11.2188 53.6016 11.3281C53.6641 11.4297 53.7266 11.5352 53.7891 11.6445C53.8516 11.7539 53.9141 11.8555 53.9766 11.9492C54.0391 12.043 54.0898 12.1016 54.1289 12.125C54.207 12.0391 54.2695 11.9453 54.3164 11.8438C54.3711 11.7344 54.4414 11.6367 54.5273 11.5508Z" fill="#2A4D69"/>
</svg>
